<?xml version="1.0" encoding="utf-8"?>
<!-- Generator: Adobe Illustrator 28.3.0, SVG Export Plug-In . SVG Version: 6.00 Build 0)  -->
<svg version="1.1" id="Layer_1" xmlns="http://www.w3.org/2000/svg" xmlns:xlink="http://www.w3.org/1999/xlink" x="0px" y="0px"
	 viewBox="0 0 231.7 342.9" style="enable-background:new 0 0 231.7 342.9;" xml:space="preserve">
<style type="text/css">
	.st0{fill:#DD3880;stroke:#231F20;stroke-miterlimit:10;}
</style>
<path class="st0" d="M13,2.7L0.1,48.1c-0.5,1.7,0.2,3.4,1.7,4.3l17,9.8c1.9,1.1,2.5,3.5,1.3,5.3l-1.9,2.8c-1.2,1.9-0.5,4.4,1.5,5.4
	L47.2,89c1.8,0.8,3.9,0.2,4.9-1.5l0.5-0.9c1-1.7,3.1-2.3,4.9-1.5l28.1,13.6c2.2,1.1,2.8,3.9,1.3,5.8L84,108
	c-1.2,1.4-3.3,1.8-4.9,0.8l-11.9-7.3c-1.7-1-3.9-0.6-5.1,1.1l-2.4,3.4c-1.1,1.6-3.2,2.1-4.9,1.2l-4.9-2.7c-2-1.1-4.4-0.2-5.3,1.8
	L41,115c-0.8,2,0.1,4.2,2.1,5l2.7,1c1.6,0.6,3.5,0,4.5-1.4l1.1-1.7c1-1.6,3.1-2.1,4.8-1.3l60.7,29.1c1.9,0.9,4.2,0.1,5.1-1.9
	l6.8-15.1c0.8-1.8,0.1-3.9-1.6-4.8l-8-4.5c-1.8-1-2.5-3.4-1.4-5.2l10-17.1c1-1.7,0.5-4-1.2-5.1l-1.3-0.8c-1.9-1.2-4.5-0.5-5.5,1.6
	l-1.7,3.8c-0.9,2-3.3,2.8-5.2,1.8L101.2,92c-2-1.1-2.6-3.7-1.2-5.5l1.3-1.8c1.3-1.8,0.8-4.3-1.1-5.4L93.4,75c-1.7-1-2.3-3.1-1.4-4.8
	l9.1-19c0.8-1.8,0.2-3.9-1.5-4.9L18.4,0.5C16.3-0.7,13.6,0.4,13,2.7z"/>
<path class="st0" d="M96.2,200.9l-39.9,69.2c-1,1.8-0.4,4.2,1.5,5.2l69.7,37.7c1.8,1,2.5,3.2,1.6,5l-0.1,0.2
	c-0.9,1.9-0.1,4.2,1.8,5.1l2.4,1.1c2,1,4.4-0.1,5.2-2.2l0,0c0.8-2.3,3.5-3.3,5.6-2l34.2,22c1.9,1.2,4.4,0.5,5.4-1.5l2.7-5.7
	c0.9-2,0-4.3-2-5.1l-2.9-1.1c-2-0.8-2.9-3.1-2.1-5l2.1-4.6c0.8-1.8,0.1-4-1.7-4.9l-24.2-12.7c-1.9-1-4.3-0.2-5.2,1.8l-1.3,3
	c-0.9,2-3.2,2.8-5.2,1.8l-3.8-2c-1.9-1-2.6-3.3-1.6-5.1l8-14.5c1-1.8,3.3-2.5,5.1-1.5l15.5,8.4c1.9,1,4.2,0.2,5.2-1.7l1.7-3.6
	c0.9-1.9,3.2-2.7,5.1-1.7l33,17.1c2,1.1,4.5,0,5.3-2.1l1.2-3.4c0.8-2.2,3.2-3.2,5.3-2.1l0.5,0.3c2.1,1.1,4.6,0,5.3-2.2l1.8-5.6
	c0.5-1.7-0.2-3.6-1.8-4.4l-87.4-47.6c-1.8-0.9-2.4-3.1-1.6-4.9l2.7-5.7c0.9-1.8,0.1-4-1.7-4.9L101,199.8
	C99.4,198.5,97.2,199.1,96.2,200.9L96.2,200.9z"/>
</svg>
