<?xml version="1.0" encoding="utf-8"?>
<!-- Generator: Adobe Illustrator 28.3.0, SVG Export Plug-In . SVG Version: 6.00 Build 0)  -->
<svg version="1.1" id="Layer_1" xmlns="http://www.w3.org/2000/svg" xmlns:xlink="http://www.w3.org/1999/xlink" x="0px" y="0px"
	 viewBox="0 0 345.5 202.1" style="enable-background:new 0 0 345.5 202.1;" xml:space="preserve">
<style type="text/css">
	.st0{fill:#F6B4D1;stroke:#231F20;stroke-miterlimit:10;}
</style>
<path class="st0" d="M41.5,0.8l-3.6,6.4c-0.4,0.7-0.2,1.7,0.6,2.1l40.9,23c0.7,0.4,1,1.3,0.6,2.1l-13,22.8c-0.4,0.7-1.3,1-2.1,0.6
	l-12.8-7c-0.7-0.4-1.7-0.1-2.1,0.6l-4.3,7.9c-0.4,0.7-1.3,1-2.1,0.6l-23.9-13c-0.8-0.4-1.7-0.1-2.1,0.7L13.5,56
	c-0.4,0.7-0.1,1.6,0.6,2l2.7,1.5c0.8,0.4,1,1.5,0.5,2.2l-13.6,20c-0.5,0.7-0.3,1.7,0.5,2.2l4.3,2.5c0.8,0.5,1,1.6,0.4,2.3l-7.7,9.6
	c-0.6,0.8-0.4,1.9,0.5,2.3l3.3,1.6c0.9,0.4,1.1,1.6,0.5,2.3L0.3,111c-0.6,0.7-0.4,1.8,0.4,2.3l23.2,14.3c0.7,0.5,1,1.5,0.5,2.2
	L9.6,151.2c-0.5,0.8-0.3,1.8,0.6,2.2l18.8,9.9c0.8,0.4,1.7,0.1,2.1-0.7l6.8-14.9c0.4-0.8,1.4-1.1,2.1-0.7l9.4,5.3
	c1,0.6,1.1,1.9,0.1,2.6l-0.9,0.6c-0.9,0.6-0.9,2,0,2.6l5.9,3.7c0.7,0.4,0.9,1.3,0.5,2l-6.7,12c-0.4,0.7-1.3,1-2,0.6l-17.2-9
	c-0.7-0.4-1.5-0.2-1.9,0.4l-3.5,4.7c-0.6,0.8-0.3,1.9,0.6,2.3L47,185.2c0.8,0.4,1.2,1.4,0.7,2.2l-2.1,3.4c-0.5,0.8-0.2,1.8,0.6,2.2
	l18.4,8.9c0.7,0.4,1.6,0.1,2-0.6l6.4-10.6c0.4-0.7,1.3-0.9,2-0.6l3.5,1.9c0.8,0.4,1.8,0,2.2-0.8l0.4-1c0.3-0.9,1.3-1.2,2.1-0.9
	l1.7,0.8c0.7,0.4,1.6,0.1,2-0.7l2.9-5.5c0.4-0.8,0.1-1.7-0.7-2.1L64.3,169c-0.7-0.4-1-1.2-0.7-1.9l3.8-9.2c0.3-0.7,0-1.6-0.7-1.9
	l-3.1-1.6c-0.8-0.4-1-1.4-0.6-2.2l7.1-11.6c0.4-0.7,0.2-1.6-0.5-2.1l-9.9-6.5c-0.7-0.5-0.9-1.4-0.4-2.1l19.4-29.6
	c0.5-0.8,0.2-1.8-0.7-2.2l-2-0.9c-0.9-0.4-1.2-1.6-0.6-2.3l4.7-6c0.4-0.6,1.2-0.7,1.8-0.4l3.5,1.6c0.8,0.4,1.7,0,2.1-0.8l1.2-2.9
	c0.3-0.9,1.4-1.2,2.2-0.8l39.1,22.8c0.8,0.4,1.8,0.1,2.1-0.7l11.3-23.7c0.4-0.8,1.3-1.1,2.1-0.7l1.7,0.9c0.8,0.4,1.7,0.1,2.1-0.7
	l4.3-9c0.3-0.6,1-1,1.6-0.8l3.2,0.5c0.7,0.1,1.3-0.2,1.6-0.8l3.7-7.6c0.4-0.7,0.1-1.6-0.7-2l-45.4-23.7c-0.8-0.4-1.7-0.1-2.1,0.7
	L111,50.7c-0.4,0.8-1.3,1.1-2.1,0.7l-16-8c-0.8-0.4-1.1-1.3-0.7-2.1l11.9-22.7c0.4-0.8,0.1-1.7-0.7-2.1l-11.2-5.9
	c-0.7-0.4-1.7-0.1-2.1,0.6l-5.5,10.1c-0.4,0.7-1.3,1-2.1,0.6L43.5,0.2C42.8-0.2,41.9,0,41.5,0.8L41.5,0.8z"/>
<path class="st0" d="M172.8,75.1l-3.1,5.9c-0.4,0.8-0.1,1.7,0.7,2.1l7.7,3.5c0.8,0.4,1.1,1.3,0.7,2.1l-6.2,12.1
	c-0.4,0.7-1.3,1-2,0.7l-1.9-0.9c-0.7-0.3-1.6-0.1-2,0.7l-3.4,6.2c-0.4,0.7-0.1,1.7,0.6,2.1l51.9,29.1c0.7,0.4,1.6,0.2,2-0.5l4.6-6.6
	c0.5-0.8,0.3-1.8-0.5-2.2l-13.8-7.5c-0.7-0.4-1-1.3-0.6-2.1l5.9-11.2c0.4-0.8,1.3-1,2.1-0.6l4.4,2.4c0.8,0.4,1.8,0.1,2.1-0.8
	l3.4-8.7c0.3-0.7,0-1.5-0.6-1.9l-37.1-21.8c-0.8-0.5-1.8-0.1-2.2,0.7l-0.4,0.8c-0.4,0.8-1.4,1.1-2.2,0.7l-8-4.9
	C174.2,74,173.2,74.3,172.8,75.1L172.8,75.1z"/>
<path class="st0" d="M275.4,48l65.1,35.7c0.8,0.4,1.7,0.1,2.1-0.7l2.8-5.7c0.4-0.8,0.1-1.7-0.7-2.1l-6.3-3.2
	c-0.8-0.4-1.1-1.3-0.7-2.1l0.5-0.9c0.4-0.7,0.1-1.6-0.6-2l-17.7-9.5c-0.7-0.4-1.6-0.1-2,0.6l-0.3,0.5c-0.4,0.7-1.4,1-2.1,0.5
	l-1.4-0.8c-0.7-0.4-0.9-1.3-0.5-2l0.3-0.5c0.5-0.8,0-1.9-0.8-2.2l-8-2.8c-0.8-0.3-1.2-1.2-0.9-2l0.3-0.8c0.2-0.7,0-1.4-0.6-1.8
	l-3.7-2.5c-0.6-0.4-1.4-0.3-1.9,0.2l-1.4,1.3c-0.5,0.5-1.2,0.6-1.8,0.3l-3.6-1.8c-0.8-0.4-1.1-1.3-0.7-2.1l0.3-0.5
	c0.4-0.8,0.1-1.7-0.7-2.1l-4.7-2.2c-0.8-0.4-1.7,0-2.1,0.8l-0.6,1.5c-0.4,1-1.6,1.2-2.4,0.5l0,0c-0.7-0.7-1.9-0.5-2.4,0.4l-3.2,6
	C274.4,46.7,274.7,47.6,275.4,48L275.4,48z"/>
</svg>
