<?xml version="1.0" encoding="utf-8"?>
<!-- Generator: Adobe Illustrator 28.3.0, SVG Export Plug-In . SVG Version: 6.00 Build 0)  -->
<svg version="1.1" id="Layer_1" xmlns="http://www.w3.org/2000/svg" xmlns:xlink="http://www.w3.org/1999/xlink" x="0px" y="0px"
	 viewBox="0 0 276.7 352" style="enable-background:new 0 0 276.7 352;" xml:space="preserve">
<style type="text/css">
	.st0{fill:#F05636;stroke:#231F20;stroke-miterlimit:10;}
</style>
<path class="st0" d="M96.2,69.3l50.4,27.5c0.8,0.4,1.3,1.4,1.1,2.3l-7.6,47.7c-0.1,0.9,0.3,1.9,1.2,2.3l29.2,14.4
	c1.2,0.6,1.6,2.1,0.8,3.2l-2.6,3.6c-0.7,1-0.5,2.4,0.5,3.1l5.2,3.5c0.9,0.6,1.2,1.9,0.7,2.9L153.6,218c-0.4,0.8-1.4,1.2-2.3,1.1
	l-7.2-1.1c-0.9-0.1-1.9,0.3-2.3,1.2l-5.8,11.6c-0.6,1.1-2,1.6-3.1,0.9L112.7,220c-1.1-0.6-2.5-0.2-3.1,1l-13.2,27.7
	c-0.5,1.1-1.9,1.6-3,1l-6.2-3.3c-1.1-0.6-2.5-0.1-3,1l-3.4,7.6c-0.5,1.2-2,1.6-3.1,1l-8-4.8c-1-0.6-1.4-1.8-0.8-2.9l3.5-6.9
	c0.6-1.1,0.1-2.5-1.1-3l-11.8-5.1c-1.2-0.5-1.7-2-1-3.1L69.9,210c0.6-1.1,0.2-2.5-0.9-3.1l-33.6-16.3c-1.2-0.6-1.6-2-0.9-3.1
	l6.3-10.6c0.6-1.1,0.3-2.4-0.8-3l-7.6-4.3c-1-0.6-1.4-1.9-0.9-2.9l4-7.5c0.6-1.1,0.2-2.4-0.9-3L1.2,138.7c-1.1-0.6-1.5-2-0.9-3.1
	l2-3.3c0.6-1,1.9-1.3,2.9-0.8l5.1,2.7c1.2,0.6,2.7,0,3.1-1.2l0.8-2.4c0.5-1.5,2.4-2,3.6-0.9l4.4,4.1c0.9,0.9,2.4,0.8,3.2-0.2
	l9.3-11.7c0.9-1.1,0.5-2.7-0.7-3.3l-3.4-1.7c-1-0.5-1.5-1.7-1.1-2.7l1.6-4.2c0.5-1.3,2.1-1.8,3.3-1.1l3.7,2.4
	c1.1,0.8,2.7,0.3,3.2-0.9l13.2-28.7c0.5-1.1,1.8-1.6,2.9-1.1l1.4,0.7c1.3,0.6,2.8-0.2,3.1-1.6l0.9-4.4c0.3-1.7,2.3-2.3,3.6-1.2
	l8.8,7.8c1.2,1,3,0.6,3.5-0.9l2.8-7.7c0.5-1.4,2.2-1.9,3.4-1l2.8,2.1c1,0.8,2.5,0.5,3.2-0.6l2.5-3.8C93.9,69.1,95.1,68.8,96.2,69.3
	L96.2,69.3z"/>
<path class="st0" d="M190.9,177.8l-2.6,6.5c-0.4,1.1,0.1,2.4,1.1,2.8l1,0.4c1.1,0.5,1.6,1.7,1.1,2.8l-8.8,22.2c-0.4,1,0,2.2,1,2.7
	l17.6,9.9c1,0.6,1.4,1.8,0.9,2.9l-8.5,17.4c-0.5,1-0.1,2.3,0.9,2.9l18.9,11.2c1.1,0.7,2.6,0.2,3.1-1l1.4-3.1c0.4-1,1.5-1.5,2.6-1.2
	l2.4,0.7c1,0.3,2.1-0.2,2.6-1.1l3.8-7.6c0.5-0.9,0.2-2-0.6-2.7l-3-2.5c-0.9-0.7-1.1-2-0.4-2.9l12.6-18.4c0.8-1.1,0.4-2.6-0.8-3.2
	l-4.5-2.3c-1.1-0.5-1.5-1.8-1-2.9l0.9-2c0.5-1.1,0-2.4-1.1-2.9l-29.1-13.1c-1.3-0.6-1.7-2.2-0.9-3.3l3.3-4.4
	c0.8-1.1,0.5-2.6-0.7-3.2l-10.2-5.7C192.8,176.1,191.4,176.6,190.9,177.8L190.9,177.8z"/>
<path class="st0" d="M232.6,273.4l-7.6,17.9c-0.4,1-1.5,1.5-2.5,1.3l-9.8-2.4c-1.1-0.3-2.2,0.3-2.6,1.4l-1.3,3.7
	c-0.4,1.1,0.1,2.3,1.2,2.8l3.9,1.6c1.5,0.6,1.8,2.7,0.6,3.7l-1.5,1.2c-1.1,0.9-1,2.7,0.2,3.5l5.7,3.9c1.1,0.8,1.3,2.4,0.3,3.4l-3,3
	c-1.1,1.1-0.8,2.9,0.6,3.5l9.2,4.6c1.2,0.6,1.6,2,0.9,3.1l-2.8,4.5c-0.7,1.1-0.3,2.6,0.9,3.2l3,1.4c1,0.5,2.2,0.1,2.8-0.8l2.3-3.7
	c0.6-1,1.8-1.3,2.8-0.8l12.4,5.8c1.1,0.5,1.6,1.9,1,3l-4.3,8.2l5.4,1.6l2.9-7.4c0.5-1.2,2-1.8,3.1-1.1l4.4,2.5
	c1.1,0.6,2.5,0.2,3.1-1l12.8-28c0.5-1,0.1-2.2-0.9-2.8l-19.9-12c-1-0.6-1.3-1.8-0.8-2.9l2.7-5.4c0.4-0.9,0.3-1.9-0.4-2.5l-2.8-2.8
	c-0.8-0.8-0.9-2.1-0.1-3l1-1.1c1-1.1,0.6-2.9-0.7-3.5l-19.1-8.7C234.4,271.7,233.1,272.2,232.6,273.4L232.6,273.4z"/>
<path class="st0" d="M141.4,51l-4.8,13.8c-0.4,1.1,0.1,2.2,1.1,2.7l20.8,10.2c1,0.5,2.3,0.1,2.9-0.8l7-11.6c0.6-1,2-1.4,3-0.7
	l21,12.8c1.1,0.7,2.5,0.3,3.1-0.9l0.9-1.7c0.5-0.9,1.5-1.4,2.5-1.2l3.2,0.8c0.9,0.2,1.9-0.2,2.4-0.9l1.7-2.6
	c0.7-1.1,0.3-2.5-0.8-3.1l-8-4.4c-1-0.6-1.4-1.8-0.9-2.9l2.9-6c0.6-1.2,2.1-1.6,3.3-0.8l0,0c0.9,0.7,2.2,0.5,3-0.4l2.6-3
	c1-1.2,0.5-3-1-3.5l-4.5-1.5c-1.2-0.4-1.8-1.7-1.4-2.9l5.6-14.8c0.3-0.9,0.1-1.9-0.7-2.5l-7.3-5.8c-0.9-0.7-2.3-0.6-3.1,0.3
	l-2.9,3.5c-0.7,0.8-1.8,1-2.8,0.5l-17-9.4c-1.1-0.6-1.5-2-0.8-3.1l2.4-4c0.7-1.1,0.2-2.6-1-3.2l-8.6-3.8c-1.3-0.6-2.8,0.2-3.1,1.7
	L160.3,14c-0.2,1.4-1.8,2.3-3.1,1.7l-7.2-3.3c-1.1-0.5-2.5,0-2.9,1.2l-1.9,4.5c-0.6,1.3-2.2,1.8-3.3,0.9L129,9.4
	c-0.9-0.7-2.2-0.6-2.9,0.3l-3.5,3.8c-0.9,1-0.7,2.5,0.3,3.3l4.5,3.3c0.9,0.7,1.2,1.9,0.6,2.9l-6.6,11c-0.6,1-0.3,2.3,0.7,3
	l18.3,11.5C141.4,49,141.8,50.1,141.4,51L141.4,51z"/>
</svg>
