<?xml version="1.0" encoding="utf-8"?>
<!-- Generator: Adobe Illustrator 28.3.0, SVG Export Plug-In . SVG Version: 6.00 Build 0)  -->
<svg version="1.1" id="Layer_1" xmlns="http://www.w3.org/2000/svg" xmlns:xlink="http://www.w3.org/1999/xlink" x="0px" y="0px"
	 viewBox="0 0 394.4 528.8" style="enable-background:new 0 0 394.4 528.8;" xml:space="preserve">
<style type="text/css">
	.st0{fill:none;stroke:#231F20;stroke-width:2;stroke-miterlimit:10;}
	.st1{fill:none;stroke:#231F20;stroke-miterlimit:10;}
	.st2{fill:#231F20;}
	.st3{fill:#231F20;stroke:#231F20;stroke-miterlimit:10;}
	.st4{fill:none;stroke:#FFFFFF;stroke-miterlimit:10;}
	.st5{fill:none;stroke:#FFFFFF;stroke-linecap:round;stroke-miterlimit:10;}
	.st6{fill:none;stroke:#FFFFFF;stroke-width:3;stroke-linecap:round;stroke-miterlimit:10;}
	.st7{fill:none;stroke:#000000;stroke-width:3;stroke-linecap:round;stroke-miterlimit:10;}
	.st8{fill:none;stroke:#000000;stroke-miterlimit:10;}
	.st9{fill:none;stroke:#000000;stroke-width:2;stroke-linecap:round;stroke-miterlimit:10;}
</style>
<path class="st0" d="M139,242.4H65.3v-10.1h19l0.5-0.5H70v-77c0-0.5,0-1.1,0-1.6c0.2-5.3,1.8-10.3,4.4-14.6
	c-1.4-2.6-2.8-5.2-4.2-7.8c0.5-0.6,1.7-1.8,3.5-3.4c1-0.9,2.3-1.8,3.7-2.8c0.5-0.4,1.1-0.8,1.7-1.1c1.3-0.8,2.7-1.6,4.2-2.3
	c0.8-0.4,1.5-0.7,2.4-1.1c1.7-0.7,3.5-1.3,5.4-1.9c0.7-0.2,1.3-0.3,2-0.5c1-0.2,2-0.4,3-0.5c0.9-0.1,1.9-0.2,2.9-0.3
	c0.7-0.1,1.5-0.1,2.2-0.1c0.1,0,0.3,0,0.4,0c0.8,0,1.6,0,2.4,0c1,0,2,0.1,2.9,0.2c1.8,0.2,3.5,0.5,5.1,0.9c6.6,1.6,12,4.7,15.9,7.6
	c1.5,1.1,2.8,2.2,3.9,3.2c2,1.8,3.2,3.2,3.6,3.8c-2,2.1-3.8,4.4-5.7,6.7c2.6,4.4,4.2,9.5,4.4,14.9c0,0.5,0,1.1,0,1.7v76H95.7
	l-0.5,0.5H139V242.4z M249,242.4h-73.7v-10.1h18.2l0.5-0.5h-14.1v-77c0.1-13.1,8.1-24.4,19.6-29.1c0.4-0.2,0.8-0.3,1.2-0.5
	c3.5-1.3,7.2-2,11.1-2c2.6,0,5.2,0.3,7.6,0.9V124c-2.3-0.6-5-1-8.1-0.9c-8.4,0.1-14.3,3.3-15.8,4.2c-6.4,3.7-9.8,8.7-11.2,11.1
	c-1.5-2.7-2.9-5.4-4.4-8.1c0.5-0.6,1.7-1.8,3.5-3.4c1-0.9,2.3-1.9,3.8-2.9c0.5-0.4,1.1-0.8,1.7-1.1c0.7-0.4,1.4-0.8,2.2-1.3
	c0.6-0.4,1.3-0.7,1.9-1c0.8-0.4,1.5-0.7,2.4-1.1c1.7-0.7,3.5-1.3,5.4-1.9c0.7-0.2,1.4-0.4,2.1-0.5c1-0.2,2-0.4,3-0.5
	c0.9-0.1,1.9-0.2,2.9-0.3c0.7,0,1.4-0.1,2.1-0.1c0.1,0,0.3,0,0.4,0c0.8,0,1.6,0,2.4,0c1,0,2,0.1,2.9,0.2c1.8,0.2,3.5,0.5,5.2,1
	c6.6,1.6,11.9,4.7,15.8,7.6c1.5,1.1,2.9,2.3,4,3.3c1.9,1.8,3.1,3.2,3.5,3.7c-1.9,2.1-3.8,4.3-5.6,6.7c3.1,5,4.8,10.8,4.8,17v76H244
	v0.1h-39.1l-0.5,0.5H249L249,242.4L249,242.4z M353.1,242.4h-73.7v-10.1h19.7l0.5-0.5H284v-77c0-0.5,0-1.1,0-1.6
	c0.8-16.6,14.7-30,31.6-30c2.7,0,5.3,0.3,7.8,0.9V124c-2.3-0.6-5-1-8.1-0.9c-8.4,0.1-14.3,3.3-15.8,4.2c-6.4,3.7-9.8,8.7-11.2,11.1
	c-1.5-2.7-3-5.4-4.4-8.1c0.5-0.6,1.7-1.8,3.5-3.4c1-0.9,2.3-1.9,3.8-2.9c0.5-0.4,1.1-0.7,1.6-1.1c0.7-0.4,1.4-0.9,2.2-1.3
	c0.6-0.4,1.3-0.7,1.9-1c0.8-0.4,1.5-0.7,2.4-1.1c1.7-0.7,3.5-1.3,5.4-1.9c0.7-0.2,1.3-0.3,2-0.5c1-0.2,2-0.4,3-0.5
	c0.9-0.1,1.9-0.2,2.9-0.3c0.7-0.1,1.4-0.1,2.2-0.1c0.1,0,0.3,0,0.4,0c0.8,0,1.6,0,2.4,0c1,0,2,0.1,2.9,0.2c1.8,0.2,3.5,0.5,5.2,1
	c6.6,1.7,11.9,4.7,15.8,7.6c1.5,1.1,2.8,2.2,3.9,3.2c0.8,0.7,1.4,1.3,1.9,1.9c0.9,0.9,1.4,1.6,1.7,1.9c-2,2.2-3.8,4.4-5.7,6.8
	c2.8,4.5,4.4,9.7,4.7,15.3c0,0.5,0,1.1,0,1.7v76h-37.5l-0.5,0.5h43.1V242.4z M38.3,258.3V99.5h341.1v158.9"/>
<polyline class="st0" points="38.3,289.7 38.3,430.4 38.3,430.4 38.3,448.9 38.3,449 38.6,449 67.8,449 129.4,449 152.3,449 
	158.6,449 379.4,449 379.4,448.9 379.4,244.5 "/>
<polyline class="st1" points="38.3,98.5 38.3,98.3 379.4,98.3 379.4,98.5 "/>
<polyline class="st1" points="38.3,244.5 38.3,280 146.8,280 164.9,280 164.9,280.6 164.9,287.6 38.3,287.6 "/>
<rect x="21.4" y="48.5" class="st1" width="369.7" height="20"/>
<rect x="21.6" y="84.3" class="st1" width="369" height="13.9"/>
<path class="st2" d="M235.6,336.1v95.6h-47.9v-96.5c0-12.9,10.5-23.4,23.4-23.4c6.7,0,12.8,2.7,17.3,7.1
	C232.8,323.3,235.6,329.4,235.6,336.1L235.6,336.1z"/>
<path class="st2" d="M339.8,335.1v96.6h-47.9v-95.5c0-13.5,11-24.5,24.5-24.5c6.5,0,12.3,2.6,16.5,6.8
	C337.2,322.8,339.8,328.6,339.8,335.1L339.8,335.1z"/>
<path class="st1" d="M211.2,134.2L211.2,134.2c13.5,0,24.4,10.9,24.4,24.4v73.1h-47.8v-74.1C187.7,144.7,198.2,134.2,211.2,134.2z"
	/>
<path class="st1" d="M101.2,134.2L101.2,134.2c13.5,0,24.4,10.9,24.4,24.4v73.1H77.7v-74.1C77.7,144.7,88.2,134.2,101.2,134.2z"/>
<path class="st1" d="M316.4,134.2L316.4,134.2c12.9,0,23.4,10.5,23.4,23.4v74.1H292v-73C291.9,145.1,302.9,134.2,316.4,134.2
	L316.4,134.2z"/>
<rect x="38.3" y="68.1" class="st1" width="341" height="16.2"/>
<path class="st1" d="M101.2,130.4L101.2,130.4c15.1,0,27.4,12.3,27.4,27.4v73.9H74.8v-74.8C74.8,142.3,86.6,130.4,101.2,130.4
	L101.2,130.4z"/>
<path class="st1" d="M211.4,130.4L211.4,130.4c15.1,0,27.4,12.3,27.4,27.4v73.9H185v-74.8C185,142.3,196.8,130.4,211.4,130.4
	L211.4,130.4z"/>
<line class="st1" x1="187.6" y1="376.5" x2="235.3" y2="376.5"/>
<line class="st1" x1="292.6" y1="376.5" x2="340.4" y2="376.5"/>
<path class="st2" d="M101.2,133.6L101.2,133.6c13.5,0,24.4,10.9,24.4,24.4v73.1H77.7V157C77.7,144.1,88.2,133.6,101.2,133.6z"/>
<line class="st1" x1="77.8" y1="186.6" x2="125.6" y2="186.6"/>
<path class="st2" d="M211.1,133.6L211.1,133.6c13.5,0,24.4,10.9,24.4,24.4v73.1h-47.8V157C187.7,144.1,198.2,133.6,211.1,133.6z"/>
<path class="st1" d="M238.6,157.9v73.9h-53.8V157c-0.1-10.6,6.2-19.7,15.2-24c0.3-0.2,0.7-0.3,1-0.5c3.2-1.3,6.6-2.1,10.2-2.1
	C226.3,130.5,238.6,142.8,238.6,157.9z"/>
<line class="st1" x1="187.8" y1="186.6" x2="235.6" y2="186.6"/>
<path class="st1" d="M315.3,130.4L315.3,130.4c15.1,0,27.4,12.3,27.4,27.4v73.9h-53.8v-74.8C288.8,142.3,300.7,130.4,315.3,130.4
	L315.3,130.4z"/>
<path class="st2" d="M315.2,133.6L315.2,133.6c13.5,0,24.4,10.9,24.4,24.4v73.1h-47.8V157C291.8,144.1,302.3,133.6,315.2,133.6z"/>
<path class="st1" d="M342.7,157.9v73.9h-53.8V157c0-0.5,0-1,0-1.5c0.7-13.9,12.3-25,26.4-25c14.6,0,26.6,11.5,27.4,26
	C342.7,156.9,342.7,157.4,342.7,157.9z"/>
<line class="st1" x1="291.9" y1="186.6" x2="339.6" y2="186.6"/>
<rect x="47" y="323.8" class="st1" width="13.3" height="117.2"/>
<rect x="138.2" y="324.1" class="st1" width="13.3" height="116.7"/>
<polygon class="st1" points="158.2,312 158.2,315.5 40.9,315.5 40.9,312 47,312 47,312 154,312 154,312 "/>
<polygon class="st1" points="47,312 154,312 154,312 "/>
<rect x="33.6" y="280" class="st1" width="131.3" height="7.6"/>
<rect x="43" y="291.1" class="st3" width="114.5" height="4.7"/>
<rect x="47.3" y="296" class="st1" width="107" height="12.1"/>
<g>
	<path class="st1" d="M63.2,443.2v6H43.4v-6c0-1.2,0.7-2.2,1.6-2.2h16.6C62.5,441,63.2,442,63.2,443.2L63.2,443.2z"/>
	<path class="st1" d="M154.9,442.9v6h-19.8V443c0-1.2,0.8-2.3,1.7-2.3h16.5C154.3,440.7,154.9,441.7,154.9,442.9z"/>
</g>
<rect x="45.6" y="308.3" class="st1" width="110.5" height="3.6"/>
<polygon class="st1" points="47,312 154,312 154,312 "/>
<line class="st1" x1="33.4" y1="287.8" x2="42.9" y2="291.4"/>
<line class="st1" x1="157.7" y1="291.2" x2="165.1" y2="287.6"/>
<path class="st1" d="M129,351.5v97H68v-98c0-0.4,0-0.7,0-1.1c0.2-5.4,2.2-10.4,5.5-14.5c3.3-4.2,8-7.4,13.4-9.2
	c3.1-1,6.4-1.6,9.9-1.6h2.3c3,0,5.8,0.4,8.5,1.1c5.8,1.6,10.9,4.8,14.7,9c3.7,4.2,6.1,9.5,6.6,15.2C129,350.2,129,350.9,129,351.5
	L129,351.5z"/>
<line class="st1" x1="80.9" y1="312" x2="80.9" y2="312"/>
<line class="st1" x1="79.3" y1="308.3" x2="79.2" y2="308.2"/>
<line class="st1" x1="113.5" y1="312" x2="113.5" y2="312"/>
<line class="st4" x1="76.6" y1="184.6" x2="127.5" y2="184.6"/>
<line class="st4" x1="186" y1="184.6" x2="237" y2="184.6"/>
<line class="st4" x1="290.4" y1="184.6" x2="341.4" y2="184.6"/>
<line class="st4" x1="186" y1="375.3" x2="237" y2="375.3"/>
<line class="st4" x1="290.4" y1="375.3" x2="341.4" y2="375.3"/>
<line class="st5" x1="204.6" y1="335.8" x2="225.5" y2="314.8"/>
<line class="st5" x1="200.9" y1="349.3" x2="231.3" y2="319"/>
<line class="st5" x1="223.2" y1="337.9" x2="234.9" y2="326.2"/>
<line class="st5" x1="317.1" y1="324.6" x2="328.5" y2="313.1"/>
<line class="st5" x1="320.7" y1="352.9" x2="340.6" y2="332.9"/>
<line class="st5" x1="303.9" y1="347.6" x2="334.3" y2="317.3"/>
<line class="st5" x1="303.3" y1="359" x2="337.9" y2="324.5"/>
<line class="st5" x1="112.4" y1="148.6" x2="120.3" y2="140.7"/>
<line class="st5" x1="98.1" y1="152" x2="115.3" y2="134.8"/>
<line class="st5" x1="86.1" y1="154.6" x2="108.1" y2="132.6"/>
<line class="st5" x1="221.7" y1="151.3" x2="231.2" y2="141.8"/>
<line class="st5" x1="208.9" y1="153.1" x2="226.1" y2="135.9"/>
<line class="st5" x1="210.8" y1="141.9" x2="219" y2="133.7"/>
<line class="st5" x1="313.4" y1="163.9" x2="334.9" y2="142.4"/>
<line class="st5" x1="312.6" y1="152.7" x2="329.9" y2="135.5"/>
<line class="st5" x1="313" y1="174.9" x2="339.1" y2="148.8"/>
<line class="st5" x1="211.5" y1="417.7" x2="190.5" y2="438.6"/>
<line class="st5" x1="199.4" y1="419.8" x2="184.7" y2="434.5"/>
<line class="st5" x1="206.7" y1="401.8" x2="181.2" y2="427.3"/>
<line class="st5" x1="326.2" y1="406" x2="298.1" y2="434.2"/>
<line class="st5" x1="310.7" y1="411.6" x2="292.3" y2="430"/>
<line class="st5" x1="299.1" y1="412.4" x2="288.7" y2="422.8"/>
<line class="st5" x1="320.1" y1="423.1" x2="309.6" y2="433.5"/>
<line class="st5" x1="84.3" y1="232.3" x2="82" y2="234.6"/>
<polyline class="st5" points="84.8,231.8 84.9,231.7 85.5,231.1 110.1,206.5 "/>
<line class="st5" x1="94.6" y1="212.1" x2="76.2" y2="230.5"/>
<line class="st5" x1="83" y1="212.9" x2="72.6" y2="223.3"/>
<line class="st5" x1="95.2" y1="232.3" x2="93.5" y2="234"/>
<polyline class="st5" points="95.7,231.8 95.8,231.7 96.4,231.1 103.9,223.6 "/>
<line class="st5" x1="193.5" y1="232.3" x2="192.6" y2="233.2"/>
<polyline class="st5" points="194,231.8 194.1,231.7 194.7,231.1 221.7,204.2 "/>
<line class="st5" x1="208.8" y1="207.1" x2="186.8" y2="229.1"/>
<line class="st5" x1="204.4" y1="232.3" x2="204.1" y2="232.6"/>
<polyline class="st5" points="204.9,231.8 205,231.7 205.6,231.1 214.6,222.2 "/>
<line class="st5" x1="299.1" y1="232.3" x2="295.6" y2="235.8"/>
<polyline class="st5" points="299.6,231.8 299.7,231.7 300.3,231.1 316.8,214.6 "/>
<line class="st5" x1="324" y1="197.4" x2="289.8" y2="231.7"/>
<line class="st5" x1="310" y1="232.3" x2="307.1" y2="235.2"/>
<polyline class="st5" points="310.5,231.8 310.6,231.7 311.2,231.1 317.5,224.8 "/>
<g>
	<path class="st1" d="M239.5,334.7v97h-56v-98c0-14.6,11.8-26.4,26.4-26.4h2.1C227.3,307.3,239.5,319.5,239.5,334.7L239.5,334.7z"/>
	<path class="st1" d="M245.3,330.3v101.4h-66.7V329.4c0-17.4,14.1-31.6,31.6-31.6h2.6C230.7,297.8,245.3,312.3,245.3,330.3
		L245.3,330.3z"/>
</g>
<g>
	<path class="st1" d="M343.9,334.7v97h-56v-98c0-14.6,11.8-26.4,26.4-26.4h2.2C331.6,307.3,343.9,319.5,343.9,334.7z"/>
	<path class="st1" d="M349.6,330.3v101.4h-66.7V329.4c0-17.4,14.1-31.6,31.6-31.6h2.6C335,297.8,349.6,312.3,349.6,330.3
		L349.6,330.3z"/>
</g>
<path class="st1" d="M134.1,155.8v75.9H70v-76.9c0-0.5,0-1.1,0-1.6c0.2-5.3,1.8-10.3,4.4-14.6c2.5-4.2,5.9-7.7,10-10.4
	c0.6-0.4,1.2-0.8,1.8-1.1c0.8-0.4,1.5-0.8,2.3-1.2c0.8-0.4,1.6-0.7,2.5-1c0.6-0.2,1.3-0.4,2-0.6c1.3-0.4,2.7-0.7,4.1-0.8
	c0.7-0.1,1.4-0.2,2.1-0.2c0.8,0,1.5-0.1,2.3-0.1l0,0c0.6,0,1.3,0,1.9,0.1c0.7,0,1.4,0.1,2.1,0.2c0.8,0.1,1.6,0.2,2.3,0.4
	c0.6,0.1,1.2,0.3,1.8,0.4c0.7,0.2,1.4,0.4,2,0.6c0.9,0.3,1.7,0.6,2.5,0.9s1.6,0.7,2.4,1.1c0.6,0.3,1.2,0.7,1.8,1
	c0.7,0.4,1.4,0.9,2,1.3c0.6,0.4,1.2,0.9,1.8,1.4l0,0c1.2,1,2.3,2,3.3,3.1c0.5,0.6,1,1.2,1.5,1.8c0.9,1.2,1.8,2.4,2.5,3.7
	c2.6,4.4,4.2,9.5,4.4,14.9C134.1,154.7,134.1,155.2,134.1,155.8z"/>
<path class="st1" d="M134.1,155.8v76H70v-77c0-0.5,0-1.1,0-1.6c0.3-5.3,1.9-10.2,4.4-14.5c3.3-5.5,8.2-9.9,14.2-12.6
	c0.8-0.4,1.6-0.7,2.5-1c0.6-0.2,1.3-0.4,2-0.6c2-0.6,4-0.9,6.2-1.1c0.8,0,1.5-0.1,2.3-0.1c0.6,0,1.3,0,1.9,0.1
	c0.7,0,1.4,0.1,2.1,0.2c0.8,0.1,1.5,0.2,2.3,0.4c0.6,0.1,1.2,0.2,1.8,0.4c0.7,0.2,1.4,0.4,2,0.6c0.9,0.3,1.7,0.6,2.5,0.9
	s1.6,0.7,2.4,1.1c0.6,0.3,1.2,0.7,1.8,1c0.7,0.4,1.3,0.8,2,1.3c0.6,0.4,1.2,0.9,1.8,1.4c1.2,1,2.3,2,3.3,3.2c0.5,0.6,1,1.1,1.5,1.7
	c0.9,1.2,1.8,2.4,2.5,3.7c2.6,4.4,4.2,9.5,4.5,14.9C134.1,154.7,134.1,155.2,134.1,155.8z"/>
<rect x="65.3" y="232.3" class="st1" width="73.7" height="10.1"/>
<path class="st1" d="M128.6,157.9v73.9H74.8V157c0-0.5,0-0.9,0-1.4c0.7-14,12.2-25.1,26.4-25.1c14.6,0,26.6,11.5,27.4,26
	C128.6,156.9,128.6,157.4,128.6,157.9z"/>
<path class="st1" d="M244.3,155.7v76h-64.1v-77c0-13,7.9-24.2,19.3-29c0.4-0.2,0.8-0.3,1.2-0.5c3.5-1.3,7.2-2,11.1-2
	c2.6,0,5.2,0.3,7.6,0.9c0.7,0.2,1.3,0.3,2,0.5c0.9,0.3,1.7,0.6,2.5,0.9s1.6,0.7,2.4,1.1c0.6,0.3,1.1,0.6,1.7,0.9
	c0.1,0.1,0.2,0.1,0.3,0.2c0.1,0,0.2,0.1,0.3,0.2c0,0,0.1,0,0.1,0.1c0.5,0.3,1,0.6,1.5,1c0.6,0.4,1.2,0.9,1.8,1.4
	c1.2,0.9,2.3,2,3.4,3.1c0.5,0.5,1,1.1,1.5,1.7l0,0c0.5,0.5,0.9,1.1,1.3,1.7c0.4,0.6,0.9,1.2,1.3,1.9
	C242.5,143.6,244.3,149.4,244.3,155.7z"/>
<path class="st1" d="M244,155.8v76h-64.1v-77c0.1-13.1,8.1-24.4,19.6-29.1c0.4-0.2,0.8-0.3,1.2-0.5c3.4-1.2,7-1.9,10.8-1.9
	c9.4,0,17.8,4,23.7,10.3c0.5,0.5,1,1.1,1.5,1.7C241.3,140.9,244,148,244,155.8z"/>
<rect x="175.3" y="232.3" class="st1" width="73.7" height="10.1"/>
<path class="st1" d="M348.1,155.8v75.9H284v-76.9c0-0.5,0-1.1,0-1.6c0.8-16.6,14.7-30,31.6-30c2.7,0,5.3,0.3,7.8,0.9
	c1.6,0.4,3.1,0.9,4.5,1.5c1.5,0.6,2.9,1.3,4.2,2.1c0.7,0.4,1.4,0.8,2,1.3c1.3,0.9,2.6,2,3.8,3.1c0.2,0.2,0.4,0.4,0.6,0.6
	c0.2,0.2,0.5,0.5,0.7,0.8c0.5,0.5,1,1.1,1.5,1.7c0.9,1.1,1.8,2.3,2.6,3.6c2.8,4.5,4.4,9.7,4.7,15.3
	C348.1,154.7,348.1,155.2,348.1,155.8z"/>
<path class="st1" d="M348.1,155.8v76H284v-77c0-0.5,0-1.1,0-1.6c0.9-16.6,14.7-29.9,31.6-29.9c6,0,11.7,1.6,16.5,4.5
	c0.7,0.4,1.4,0.8,2,1.3c1.9,1.3,3.6,2.8,5.2,4.4c0.5,0.5,1,1,1.4,1.6l0.1,0.1c0.3,0.4,0.6,0.8,0.9,1.1c0.6,0.8,1.2,1.6,1.7,2.5
	c2.8,4.5,4.4,9.7,4.7,15.3C348.1,154.7,348.1,155.2,348.1,155.8z"/>
<rect x="279.4" y="232.3" class="st1" width="73.7" height="10.1"/>
<path class="st2" d="M126.6,353.8v94.6H70.8v-95.5c0-0.4,0-0.7,0-1c0.2-5.3,2.1-10.2,5.1-14.2c3-4.1,7.3-7.2,12.2-9
	c2.8-1,5.9-1.6,9-1.6h2.2c2.7,0,5.3,0.4,7.8,1.1c5.3,1.6,10,4.7,13.4,8.8c3.4,4.1,5.6,9.2,6,14.8
	C126.6,352.4,126.6,353.1,126.6,353.8L126.6,353.8z"/>
<line class="st5" x1="99" y1="331.9" x2="99" y2="445.2"/>
<line class="st5" x1="75.9" y1="351.5" x2="121.5" y2="351.5"/>
<line class="st5" x1="75.6" y1="376.5" x2="122.1" y2="376.5"/>
<line class="st5" x1="75" y1="399.7" x2="121.7" y2="399.7"/>
<line class="st5" x1="75.2" y1="424.6" x2="122" y2="424.6"/>
<line class="st6" x1="116.4" y1="390.5" x2="116.4" y2="409.3"/>
<path class="st5" d="M122.3,357v88.9H74.9v-89.8c0-0.3,0-0.7,0-1c0.2-5,1.8-9.6,4.3-13.3c2.6-3.8,6.2-6.8,10.4-8.5
	c2.4-0.9,5-1.5,7.7-1.5h1.8c2.3,0,4.5,0.4,6.6,1c4.5,1.5,8.5,4.4,11.4,8.3s4.7,8.7,5.1,13.9C122.3,355.7,122.3,356.3,122.3,357
	L122.3,357z"/>
<path class="st1" d="M48.9,408.9"/>
<path class="st1" d="M48.9,322.2"/>
<path class="st1" d="M50.7,440.7"/>
<path class="st1" d="M50.7,322.2"/>
<path class="st1" d="M52.8,440.7"/>
<path class="st1" d="M52.8,322.2"/>
<path class="st1" d="M54.6,440.7"/>
<path class="st1" d="M54.6,322.2"/>
<path class="st1" d="M56.5,408.9"/>
<path class="st1" d="M56.5,322.2"/>
<path class="st1" d="M58.4,408.8"/>
<path class="st1" d="M58.4,322.1"/>
<path class="st1" d="M140.1,425"/>
<path class="st1" d="M141.9,425"/>
<path class="st1" d="M144,425.1"/>
<path class="st1" d="M145.9,440.8"/>
<path class="st1" d="M147.7,409.2"/>
<path class="st1" d="M147.7,322.6"/>
<path class="st1" d="M149.6,409.2"/>
<g>
	<line class="st1" x1="41.4" y1="68.2" x2="41.4" y2="83.9"/>
	<line class="st1" x1="44.2" y1="68.2" x2="44.2" y2="83.9"/>
	<line class="st1" x1="47" y1="68.2" x2="47" y2="83.9"/>
	<line class="st1" x1="49.7" y1="68.2" x2="49.7" y2="83.9"/>
	<line class="st1" x1="52.5" y1="68.2" x2="52.5" y2="83.9"/>
	<line class="st1" x1="55.3" y1="68.2" x2="55.3" y2="83.9"/>
	<line class="st1" x1="58.1" y1="68.2" x2="58.1" y2="83.9"/>
	<line class="st1" x1="60.8" y1="68.2" x2="60.8" y2="83.9"/>
	<line class="st1" x1="63.6" y1="68.2" x2="63.6" y2="83.9"/>
	<line class="st1" x1="66.4" y1="68.2" x2="66.4" y2="83.9"/>
	<line class="st1" x1="69.2" y1="68.2" x2="69.2" y2="83.9"/>
	<line class="st1" x1="71.9" y1="68.2" x2="71.9" y2="83.9"/>
	<line class="st1" x1="74.7" y1="68.2" x2="74.7" y2="83.9"/>
	<line class="st1" x1="77.5" y1="68.2" x2="77.5" y2="83.9"/>
	<line class="st1" x1="80.3" y1="68.2" x2="80.3" y2="83.9"/>
	<line class="st1" x1="83" y1="68.2" x2="83" y2="83.9"/>
	<line class="st1" x1="85.8" y1="68.2" x2="85.8" y2="83.9"/>
	<line class="st1" x1="88.6" y1="68.2" x2="88.6" y2="83.9"/>
	<line class="st1" x1="91.3" y1="68.2" x2="91.3" y2="83.9"/>
	<line class="st1" x1="94.1" y1="68.2" x2="94.1" y2="83.9"/>
	<line class="st1" x1="96.9" y1="68.2" x2="96.9" y2="83.9"/>
	<line class="st1" x1="99.7" y1="68.2" x2="99.7" y2="83.9"/>
	<line class="st1" x1="102.4" y1="68.2" x2="102.4" y2="83.9"/>
	<line class="st1" x1="105.2" y1="68.2" x2="105.2" y2="83.9"/>
	<line class="st1" x1="108" y1="68.2" x2="108" y2="83.9"/>
	<line class="st1" x1="110.8" y1="68.2" x2="110.8" y2="83.9"/>
	<line class="st1" x1="113.5" y1="68.2" x2="113.5" y2="83.9"/>
	<line class="st1" x1="116.3" y1="68.2" x2="116.3" y2="83.9"/>
	<line class="st1" x1="119.1" y1="68.2" x2="119.1" y2="83.9"/>
	<line class="st1" x1="121.9" y1="68.2" x2="121.9" y2="83.9"/>
	<line class="st1" x1="124.6" y1="68.2" x2="124.6" y2="83.9"/>
	<line class="st1" x1="127.4" y1="68.2" x2="127.4" y2="83.9"/>
	<line class="st1" x1="130.2" y1="68.2" x2="130.2" y2="83.9"/>
	<line class="st1" x1="132.9" y1="68.2" x2="132.9" y2="83.9"/>
	<line class="st1" x1="135.7" y1="68.2" x2="135.7" y2="83.9"/>
	<line class="st1" x1="138.5" y1="68.2" x2="138.5" y2="83.9"/>
	<line class="st1" x1="141.3" y1="68.2" x2="141.3" y2="83.9"/>
	<line class="st1" x1="144" y1="68.2" x2="144" y2="83.9"/>
	<line class="st1" x1="146.8" y1="68.2" x2="146.8" y2="83.9"/>
	<line class="st1" x1="149.6" y1="68.2" x2="149.6" y2="83.9"/>
	<line class="st1" x1="152.4" y1="68.2" x2="152.4" y2="83.9"/>
	<line class="st1" x1="155.1" y1="68.2" x2="155.1" y2="83.9"/>
	<line class="st1" x1="157.9" y1="68.2" x2="157.9" y2="83.9"/>
	<line class="st1" x1="160.7" y1="68.2" x2="160.7" y2="83.9"/>
	<line class="st1" x1="163.5" y1="68.2" x2="163.5" y2="83.9"/>
	<line class="st1" x1="166.2" y1="68.2" x2="166.2" y2="83.9"/>
	<line class="st1" x1="169" y1="68.2" x2="169" y2="83.9"/>
	<line class="st1" x1="171.8" y1="68.2" x2="171.8" y2="83.9"/>
	<line class="st1" x1="174.6" y1="68.2" x2="174.6" y2="83.9"/>
	<line class="st1" x1="177.3" y1="68.2" x2="177.3" y2="83.9"/>
	<line class="st1" x1="180.1" y1="68.2" x2="180.1" y2="83.9"/>
	<line class="st1" x1="182.9" y1="68.2" x2="182.9" y2="83.9"/>
	<line class="st1" x1="185.6" y1="68.2" x2="185.6" y2="83.9"/>
	<line class="st1" x1="188.4" y1="68.2" x2="188.4" y2="83.9"/>
	<line class="st1" x1="191.2" y1="68.2" x2="191.2" y2="83.9"/>
	<line class="st1" x1="194" y1="68.2" x2="194" y2="83.9"/>
	<line class="st1" x1="196.7" y1="68.2" x2="196.7" y2="83.9"/>
	<line class="st1" x1="199.5" y1="68.2" x2="199.5" y2="83.9"/>
	<line class="st1" x1="202.3" y1="68.2" x2="202.3" y2="83.9"/>
	<line class="st1" x1="205.1" y1="68.2" x2="205.1" y2="83.9"/>
	<line class="st1" x1="207.8" y1="68.2" x2="207.8" y2="83.9"/>
	<line class="st1" x1="210.6" y1="68.2" x2="210.6" y2="83.9"/>
	<line class="st1" x1="213.4" y1="68.2" x2="213.4" y2="83.9"/>
	<line class="st1" x1="216.2" y1="68.2" x2="216.2" y2="83.9"/>
	<line class="st1" x1="218.9" y1="68.2" x2="218.9" y2="83.9"/>
	<line class="st1" x1="221.7" y1="68.2" x2="221.7" y2="83.9"/>
	<line class="st1" x1="224.5" y1="68.2" x2="224.5" y2="83.9"/>
	<line class="st1" x1="227.3" y1="68.2" x2="227.3" y2="83.9"/>
	<line class="st1" x1="230" y1="68.2" x2="230" y2="83.9"/>
	<line class="st1" x1="232.8" y1="68.2" x2="232.8" y2="83.9"/>
	<line class="st1" x1="235.6" y1="68.2" x2="235.6" y2="83.9"/>
	<line class="st1" x1="238.3" y1="68.2" x2="238.3" y2="83.9"/>
	<line class="st1" x1="241.1" y1="68.2" x2="241.1" y2="83.9"/>
	<line class="st1" x1="243.9" y1="68.2" x2="243.9" y2="83.9"/>
	<line class="st1" x1="246.7" y1="68.2" x2="246.7" y2="83.9"/>
	<line class="st1" x1="249.4" y1="68.2" x2="249.4" y2="83.9"/>
	<line class="st1" x1="252.2" y1="68.2" x2="252.2" y2="83.9"/>
	<line class="st1" x1="255" y1="68.2" x2="255" y2="83.9"/>
	<line class="st1" x1="257.8" y1="68.2" x2="257.8" y2="83.9"/>
	<line class="st1" x1="260.5" y1="68.2" x2="260.5" y2="83.9"/>
	<line class="st1" x1="263.3" y1="68.2" x2="263.3" y2="83.9"/>
	<line class="st1" x1="266.1" y1="68.2" x2="266.1" y2="83.9"/>
	<line class="st1" x1="268.9" y1="68.2" x2="268.9" y2="83.9"/>
	<line class="st1" x1="271.6" y1="68.2" x2="271.6" y2="83.9"/>
	<line class="st1" x1="274.4" y1="68.2" x2="274.4" y2="83.9"/>
	<line class="st1" x1="277.2" y1="68.2" x2="277.2" y2="83.9"/>
	<line class="st1" x1="280" y1="68.2" x2="280" y2="83.9"/>
	<line class="st1" x1="282.7" y1="68.2" x2="282.7" y2="83.9"/>
	<line class="st1" x1="285.5" y1="68.2" x2="285.5" y2="83.9"/>
	<line class="st1" x1="288.3" y1="68.2" x2="288.3" y2="83.9"/>
	<line class="st1" x1="291" y1="68.2" x2="291" y2="83.9"/>
	<line class="st1" x1="293.8" y1="68.2" x2="293.8" y2="83.9"/>
	<line class="st1" x1="296.6" y1="68.2" x2="296.6" y2="83.9"/>
	<line class="st1" x1="299.4" y1="68.2" x2="299.4" y2="83.9"/>
	<line class="st1" x1="302.1" y1="68.2" x2="302.1" y2="83.9"/>
	<line class="st1" x1="304.9" y1="68.2" x2="304.9" y2="83.9"/>
	<line class="st1" x1="307.7" y1="68.2" x2="307.7" y2="83.9"/>
	<line class="st1" x1="310.5" y1="68.2" x2="310.5" y2="83.9"/>
	<line class="st1" x1="313.2" y1="68.2" x2="313.2" y2="83.9"/>
	<line class="st1" x1="316" y1="68.2" x2="316" y2="83.9"/>
	<line class="st1" x1="318.8" y1="68.2" x2="318.8" y2="83.9"/>
	<line class="st1" x1="321.5" y1="68.2" x2="321.5" y2="83.9"/>
	<line class="st1" x1="324.3" y1="68.2" x2="324.3" y2="83.9"/>
	<line class="st1" x1="327.1" y1="68.2" x2="327.1" y2="83.9"/>
	<line class="st1" x1="329.9" y1="68.2" x2="329.9" y2="83.9"/>
	<line class="st1" x1="332.6" y1="68.2" x2="332.6" y2="83.9"/>
	<line class="st1" x1="335.4" y1="68.2" x2="335.4" y2="83.9"/>
	<line class="st1" x1="338.2" y1="68.2" x2="338.2" y2="83.9"/>
	<line class="st1" x1="341" y1="68.2" x2="341" y2="83.9"/>
	<line class="st1" x1="343.7" y1="68.2" x2="343.7" y2="83.9"/>
	<line class="st1" x1="346.5" y1="68.2" x2="346.5" y2="83.9"/>
	<line class="st1" x1="349.3" y1="68.2" x2="349.3" y2="83.9"/>
	<line class="st1" x1="352.1" y1="68.2" x2="352.1" y2="83.9"/>
	<line class="st1" x1="354.8" y1="68.2" x2="354.8" y2="83.9"/>
	<line class="st1" x1="357.6" y1="68.2" x2="357.6" y2="83.9"/>
	<line class="st1" x1="360.4" y1="68.2" x2="360.4" y2="83.9"/>
	<line class="st1" x1="363.1" y1="68.2" x2="363.1" y2="83.9"/>
	<line class="st1" x1="365.9" y1="68.2" x2="365.9" y2="83.9"/>
	<line class="st1" x1="368.7" y1="68.2" x2="368.7" y2="83.9"/>
	<line class="st1" x1="371.5" y1="68.2" x2="371.5" y2="83.9"/>
	<line class="st1" x1="374.3" y1="68.2" x2="374.3" y2="83.9"/>
	<line class="st1" x1="377" y1="68.2" x2="377" y2="83.9"/>
</g>
<polygon class="st1" points="249.4,432 249.4,442 236.3,442 236.3,441.9 188.4,441.9 188.4,442 175.8,442 175.8,432 "/>
<polygon class="st1" points="353.3,432 353.3,442 340.1,442 340.1,441.9 292.3,441.9 292.3,442 279.6,442 279.6,432 "/>
<line class="st7" x1="382.1" y1="462.8" x2="36.1" y2="462.8"/>
<line class="st7" x1="382.6" y1="449.2" x2="36.3" y2="449.2"/>
<line class="st7" x1="382.6" y1="526.6" x2="36.3" y2="526.6"/>
<line class="st7" x1="166.4" y1="280.6" x2="31.9" y2="280.6"/>
<line class="st7" x1="155.4" y1="307.9" x2="46.2" y2="307.9"/>
<line class="st7" x1="391.3" y1="84.6" x2="21.6" y2="84.6"/>
<line class="st7" x1="390.6" y1="98.5" x2="21.6" y2="98.5"/>
<line class="st7" x1="391.3" y1="98.5" x2="379.4" y2="98.5"/>
<line class="st7" x1="392.4" y1="49.1" x2="21" y2="49.1"/>
<line class="st7" x1="392.3" y1="68.3" x2="21.1" y2="68.3"/>
<path class="st8" d="M159.1,279.5H38.5c8.5-5.4,30.2-17.4,60.3-17.4C108.9,262,133.6,263.4,159.1,279.5z"/>
<path d="M146.8,280l-95.2-0.2c5.9-3.7,26.6-12,47.4-12C105.9,267.8,129.2,268.9,146.8,280L146.8,280z"/>
<g>
	<line class="st1" x1="347.4" y1="129.1" x2="342.2" y2="135.8"/>
	<g>
		<path class="st1" d="M349.1,131c-2,2.2-3.8,4.4-5.7,6.8l0,0l0,0c-0.4-0.7-0.9-1.5-1.7-2.5c-0.3-0.4-0.6-0.8-0.9-1.1l-0.1-0.1
			c-0.4-0.5-0.9-1.1-1.4-1.6c-0.2-0.3-0.5-0.5-0.7-0.8c-0.2-0.2-0.4-0.4-0.6-0.6c-1.1-1.1-2.3-2.1-3.7-3.1c-0.6-0.5-1.3-0.9-2-1.3
			c-0.3-0.2-0.6-0.4-0.9-0.5c-0.2-0.1-0.6-0.3-1-0.5c-0.6-0.3-1.4-0.7-2.4-1.1c-0.8-0.3-1.6-0.6-2.5-0.9c-0.6-0.2-1.3-0.4-2-0.6
			c-2.3-0.6-5-1-8.1-0.9c-8.4,0.1-14.3,3.3-15.8,4.2c-6.4,3.7-9.8,8.7-11.2,11.1c-1.5-2.7-3-5.4-4.4-8.1c0.5-0.6,1.7-1.8,3.5-3.4
			c1-0.9,2.3-1.9,3.8-2.9c0.5-0.4,1.1-0.7,1.6-1.1c0.7-0.4,1.4-0.9,2.2-1.3c0.6-0.4,1.3-0.7,1.9-1c0.8-0.4,1.5-0.7,2.4-1.1
			c1.7-0.7,3.5-1.3,5.4-1.9c0.7-0.2,1.3-0.3,2-0.5c1-0.2,2-0.4,3-0.5c0.9-0.1,1.9-0.2,2.9-0.3c0.7-0.1,1.4-0.1,2.2-0.1
			c0.1,0,0.3,0,0.4,0c0.8,0,1.6,0,2.4,0c1,0,2,0.1,2.9,0.2c1.8,0.2,3.5,0.5,5.2,1c6.6,1.7,11.9,4.7,15.8,7.6
			c1.5,1.1,2.8,2.2,3.9,3.2c0.8,0.7,1.4,1.3,1.9,1.9C348.3,130,348.8,130.7,349.1,131z"/>
		<line class="st1" x1="285.9" y1="127.5" x2="289.8" y2="134.5"/>
		<line class="st1" x1="287.5" y1="125.9" x2="291.3" y2="132.8"/>
		<line class="st1" x1="289.6" y1="124.8" x2="292.9" y2="131"/>
		<line class="st1" x1="294.4" y1="129.3" x2="291.2" y2="122.9"/>
		<line class="st1" x1="292.7" y1="121.6" x2="296.3" y2="128.1"/>
		<line class="st1" x1="295.1" y1="120.6" x2="298.3" y2="126.7"/>
		<line class="st1" x1="297" y1="119.5" x2="300.2" y2="125.7"/>
		<line class="st1" x1="299.4" y1="118.5" x2="302.5" y2="124.7"/>
		<line class="st1" x1="302" y1="117.6" x2="305" y2="123.6"/>
		<line class="st1" x1="304.7" y1="116.3" x2="307" y2="123.2"/>
		<line class="st1" x1="306.8" y1="116" x2="308.7" y2="122.4"/>
		<line class="st1" x1="311.1" y1="122.1" x2="309.8" y2="115.4"/>
		<line class="st1" x1="313.1" y1="122.1" x2="312.7" y2="115.1"/>
		<line class="st1" x1="315.4" y1="122.1" x2="315.3" y2="114.8"/>
		<line class="st1" x1="345.5" y1="127.2" x2="340.6" y2="134.5"/>
		<line class="st1" x1="343.5" y1="125.6" x2="339.1" y2="132.8"/>
		<line class="st1" x1="341.6" y1="124" x2="337.8" y2="130.4"/>
		<line class="st1" x1="336" y1="129.3" x2="339.3" y2="122.9"/>
		<line class="st1" x1="337.7" y1="121.6" x2="334.1" y2="128.1"/>
		<line class="st1" x1="335.3" y1="120.7" x2="332.1" y2="126.8"/>
		<line class="st1" x1="333.5" y1="119.6" x2="330.3" y2="125.7"/>
		<line class="st1" x1="331" y1="118.5" x2="327.9" y2="124.7"/>
		<line class="st1" x1="328.5" y1="117.6" x2="325.4" y2="123.7"/>
		<line class="st1" x1="323.4" y1="123.1" x2="323.4" y2="123.2"/>
		<polyline class="st1" points="323.5,123 325.8,116.4 325.8,116.4 		"/>
		<line class="st1" x1="323.6" y1="116" x2="321.7" y2="122.5"/>
		<line class="st1" x1="319.4" y1="122.1" x2="320.6" y2="115.4"/>
		<line class="st1" x1="317.3" y1="122.1" x2="317.7" y2="115.1"/>
	</g>
</g>
<g>
	<line class="st1" x1="243.4" y1="129.1" x2="238.2" y2="135.8"/>
	<g>
		<path class="st1" d="M245.1,131c-1.9,2.1-3.8,4.3-5.6,6.7c-0.1,0.1-0.1,0.2-0.2,0.2c-0.5-0.9-1.4-2.2-2.5-3.6
			c-0.4-0.6-0.9-1.2-1.5-1.8c-1.3-1.5-3-3.1-5.1-4.5c-0.5-0.3-1-0.7-1.5-1c0,0-0.1,0-0.1-0.1c-0.1-0.1-0.2-0.1-0.3-0.2
			c-0.1,0-0.2-0.1-0.3-0.2c-0.2-0.1-0.5-0.3-0.7-0.4s-0.6-0.3-1-0.5c-0.6-0.3-1.4-0.7-2.4-1.1c-0.8-0.3-1.6-0.6-2.5-0.9
			c-0.6-0.2-1.3-0.4-2-0.6c-2.3-0.6-5-1-8.1-0.9c-8.4,0.1-14.3,3.3-15.8,4.2c-6.4,3.7-9.8,8.7-11.2,11.1c-1.5-2.7-2.9-5.4-4.4-8.1
			c0.5-0.6,1.7-1.8,3.5-3.4c1-0.9,2.3-1.9,3.8-2.9c0.5-0.4,1.1-0.8,1.7-1.1c0.7-0.4,1.4-0.8,2.2-1.3c0.6-0.4,1.3-0.7,1.9-1
			c0.8-0.4,1.5-0.7,2.4-1.1c1.7-0.7,3.5-1.3,5.4-1.9c0.7-0.2,1.4-0.4,2.1-0.5c1-0.2,2-0.4,3-0.5c0.9-0.1,1.9-0.2,2.9-0.3
			c0.7,0,1.4-0.1,2.1-0.1c0.1,0,0.3,0,0.4,0c0.8,0,1.6,0,2.4,0c1,0,2,0.1,2.9,0.2c1.8,0.2,3.5,0.5,5.2,1c6.6,1.6,11.9,4.7,15.8,7.6
			c1.5,1.1,2.9,2.3,4,3.3C243.5,129.1,244.7,130.5,245.1,131z"/>
		<line class="st1" x1="181.9" y1="127.5" x2="185.9" y2="134.5"/>
		<line class="st1" x1="183.5" y1="125.9" x2="187.4" y2="132.8"/>
		<line class="st1" x1="185.6" y1="124.8" x2="189" y2="131"/>
		<line class="st1" x1="190.5" y1="129.3" x2="187.2" y2="122.9"/>
		<line class="st1" x1="188.8" y1="121.6" x2="192.3" y2="128.1"/>
		<line class="st1" x1="191.1" y1="120.6" x2="194.3" y2="126.7"/>
		<line class="st1" x1="193" y1="119.5" x2="196.2" y2="125.7"/>
		<line class="st1" x1="195.4" y1="118.5" x2="198.5" y2="124.7"/>
		<line class="st1" x1="198" y1="117.6" x2="201.1" y2="123.6"/>
		<line class="st1" x1="200.7" y1="116.3" x2="203" y2="123.2"/>
		<line class="st1" x1="202.9" y1="116" x2="204.7" y2="122.4"/>
		<line class="st1" x1="207.1" y1="122.1" x2="205.9" y2="115.4"/>
		<line class="st1" x1="209.1" y1="122.1" x2="208.8" y2="115.1"/>
		<line class="st1" x1="211.4" y1="122.1" x2="211.3" y2="114.8"/>
		<line class="st1" x1="241.6" y1="127.2" x2="236.6" y2="134.5"/>
		<line class="st1" x1="239.6" y1="125.6" x2="235.1" y2="132.8"/>
		<line class="st1" x1="237.6" y1="124" x2="233.9" y2="130.4"/>
		<line class="st1" x1="232" y1="129.3" x2="235.3" y2="122.9"/>
		<line class="st1" x1="233.7" y1="121.6" x2="230.1" y2="128.1"/>
		<line class="st1" x1="231.4" y1="120.7" x2="228.2" y2="126.8"/>
		<line class="st1" x1="229.5" y1="119.6" x2="226.3" y2="125.7"/>
		<line class="st1" x1="227" y1="118.5" x2="223.9" y2="124.7"/>
		<line class="st1" x1="224.5" y1="117.6" x2="221.4" y2="123.7"/>
		<line class="st1" x1="219.4" y1="123.1" x2="219.4" y2="123.2"/>
		<polyline class="st1" points="219.5,123 221.8,116.4 221.8,116.4 		"/>
		<line class="st1" x1="219.6" y1="116" x2="217.7" y2="122.5"/>
		<line class="st1" x1="215.4" y1="122.1" x2="216.6" y2="115.4"/>
		<line class="st1" x1="213.3" y1="122.1" x2="213.7" y2="115.1"/>
	</g>
</g>
<g>
	<line class="st1" x1="133.5" y1="129.6" x2="128.4" y2="136.3"/>
	<g>
		<path class="st1" d="M135.3,131.5c-2,2.1-3.8,4.4-5.7,6.7l0,0l-0.1,0.1c-0.5-0.9-1.4-2.2-2.5-3.7c-0.4-0.6-0.9-1.2-1.5-1.8
			c-1.3-1.5-3-3.1-5.1-4.5c-0.6-0.5-1.3-0.9-2-1.3c-0.3-0.2-0.6-0.4-0.9-0.5c-0.2-0.1-0.5-0.3-0.9-0.5c-0.6-0.3-1.4-0.7-2.4-1.1
			c-0.8-0.3-1.6-0.6-2.5-0.9c-0.6-0.2-1.3-0.4-2-0.6c-2.3-0.6-5-1-8.1-0.9c-8.4,0.1-14.3,3.3-15.8,4.2c-6.4,3.7-9.8,8.7-11.2,11.1
			c0-0.1-0.1-0.2-0.1-0.2l0,0c-1.4-2.6-2.8-5.2-4.2-7.8c0.5-0.6,1.7-1.8,3.5-3.4c1-0.9,2.3-1.8,3.7-2.8c0.5-0.4,1.1-0.8,1.7-1.1
			c1.3-0.8,2.7-1.6,4.2-2.3c0.8-0.4,1.5-0.7,2.4-1.1c1.7-0.7,3.5-1.3,5.4-1.9c0.7-0.2,1.3-0.3,2-0.5c1-0.2,2-0.4,3-0.5
			c0.9-0.1,1.9-0.2,2.9-0.3c0.7-0.1,1.5-0.1,2.2-0.1c0.1,0,0.3,0,0.4,0c0.8,0,1.6,0,2.4,0c1,0,2,0.1,2.9,0.2
			c1.8,0.2,3.5,0.5,5.1,0.9c6.6,1.6,12,4.7,15.9,7.6c1.5,1.1,2.8,2.2,3.9,3.2C133.6,129.5,134.9,131,135.3,131.5z"/>
		<line class="st1" x1="72.1" y1="128" x2="76" y2="135"/>
		<line class="st1" x1="73.7" y1="126.4" x2="77.5" y2="133.3"/>
		<line class="st1" x1="75.7" y1="125.3" x2="79.1" y2="131.5"/>
		<line class="st1" x1="80.6" y1="129.8" x2="77.3" y2="123.4"/>
		<line class="st1" x1="78.9" y1="122.1" x2="82.5" y2="128.6"/>
		<line class="st1" x1="81.3" y1="121.2" x2="84.5" y2="127.3"/>
		<line class="st1" x1="83.2" y1="120" x2="86.3" y2="126.2"/>
		<line class="st1" x1="85.6" y1="119" x2="88.7" y2="125.2"/>
		<line class="st1" x1="88.1" y1="118.1" x2="91.2" y2="124.2"/>
		<line class="st1" x1="90.9" y1="116.8" x2="93.2" y2="123.7"/>
		<line class="st1" x1="93" y1="116.5" x2="94.9" y2="122.9"/>
		<line class="st1" x1="97.2" y1="122.6" x2="96" y2="115.9"/>
		<line class="st1" x1="99.3" y1="122.6" x2="98.9" y2="115.6"/>
		<line class="st1" x1="101.6" y1="122.6" x2="101.5" y2="115.3"/>
		<line class="st1" x1="131.7" y1="127.7" x2="126.8" y2="135"/>
		<line class="st1" x1="129.7" y1="126.1" x2="125.3" y2="133.3"/>
		<line class="st1" x1="127.8" y1="124.5" x2="124" y2="130.9"/>
		<line class="st1" x1="122.2" y1="129.8" x2="125.5" y2="123.4"/>
		<line class="st1" x1="123.9" y1="122.1" x2="120.3" y2="128.6"/>
		<line class="st1" x1="121.5" y1="121.2" x2="118.3" y2="127.3"/>
		<line class="st1" x1="119.7" y1="120.1" x2="116.5" y2="126.3"/>
		<line class="st1" x1="117.2" y1="119" x2="114.1" y2="125.2"/>
		<line class="st1" x1="114.7" y1="118.1" x2="111.6" y2="124.2"/>
		<line class="st1" x1="111.9" y1="116.9" x2="109.6" y2="123.7"/>
		<line class="st1" x1="109.8" y1="116.5" x2="107.9" y2="123"/>
		<line class="st1" x1="105.6" y1="122.6" x2="106.8" y2="115.9"/>
		<line class="st1" x1="103.5" y1="122.6" x2="103.9" y2="115.6"/>
	</g>
</g>
<path d="M41.3,32.2h28.8c1.5,0,2.7,1.2,2.7,2.7v14.4H38.3V35C38.3,33.4,39.6,32.1,41.3,32.2L41.3,32.2z"/>
<path d="M78.7,39.3h28.8c1.5,0,2.8,1.2,2.8,2.8v5c0,1.5-1.2,2.8-2.8,2.8H78.7c-1.5,0-2.8-1.2-2.8-2.8v-5
	C75.9,40.6,77.1,39.3,78.7,39.3z"/>
<line class="st9" x1="46.1" y1="19.8" x2="46.1" y2="42.5"/>
<line class="st9" x1="49.6" y1="23.3" x2="49.6" y2="46"/>
<polyline class="st0" points="379.4,527.2 379.4,525.6 379.4,522.4 379.4,520.4 379.4,518.2 379.4,515.4 379.4,513.5 379.4,508.9 
	379.4,508.4 379.4,506.5 379.4,501.4 379.4,499.5 379.4,497.6 379.4,494.4 379.4,494.4 379.4,492.6 379.4,492.5 379.4,487.4 
	379.4,485.5 379.4,480.4 379.4,478.5 379.4,473.5 379.4,471.5 379.4,466.5 379.4,464.1 "/>
<polyline class="st0" points="38.2,527.2 38.2,520 38.2,518.1 38.2,512.6 38.2,508.6 38.2,499.5 38.2,492.1 38.2,491.9 38.2,482.5 
	38.2,462.8 "/>
<g>
	<g>
		<path d="M104.4,466.5h10.5c0.7,0,1.2,0.5,1.2,1.2v2.7c0,0.7-0.5,1.2-1.2,1.2h-10.5c-0.7,0-1.2-0.5-1.2-1.2v-2.7
			C103.1,467,103.7,466.5,104.4,466.5z"/>
		<path d="M120,466.5h10.5c0.7,0,1.2,0.5,1.2,1.2v2.7c0,0.7-0.5,1.2-1.2,1.2H120c-0.7,0-1.2-0.5-1.2-1.2v-2.7
			C118.7,467,119.3,466.5,120,466.5z"/>
		<path d="M135.6,466.5h10.5c0.7,0,1.2,0.5,1.2,1.2v2.7c0,0.7-0.5,1.2-1.2,1.2h-10.5c-0.7,0-1.2-0.5-1.2-1.2v-2.7
			C134.3,467,134.9,466.5,135.6,466.5z"/>
		<path d="M151.5,466.5H162c0.7,0,1.2,0.5,1.2,1.2v2.7c0,0.7-0.5,1.2-1.2,1.2h-10.5c-0.7,0-1.2-0.5-1.2-1.2v-2.7
			C150.2,467,150.7,466.5,151.5,466.5z"/>
		<path d="M167,466.5h10.5c0.7,0,1.2,0.5,1.2,1.2v2.7c0,0.7-0.5,1.2-1.2,1.2H167c-0.7,0-1.2-0.5-1.2-1.2v-2.7
			C165.8,467,166.3,466.5,167,466.5z"/>
		<path d="M182.6,466.5h10.5c0.7,0,1.2,0.5,1.2,1.2v2.7c0,0.7-0.5,1.2-1.2,1.2h-10.5c-0.7,0-1.2-0.5-1.2-1.2v-2.7
			C181.4,467,181.9,466.5,182.6,466.5z"/>
		<path d="M198.2,466.5h10.5c0.7,0,1.2,0.5,1.2,1.2v2.7c0,0.7-0.5,1.2-1.2,1.2h-10.5c-0.7,0-1.2-0.5-1.2-1.2v-2.7
			C197,467,197.5,466.5,198.2,466.5z"/>
		<path d="M213.8,466.5h10.5c0.7,0,1.2,0.5,1.2,1.2v2.7c0,0.7-0.5,1.2-1.2,1.2h-10.5c-0.7,0-1.2-0.5-1.2-1.2v-2.7
			C212.5,467,213.1,466.5,213.8,466.5z"/>
		<path d="M111.5,473.5H122c0.7,0,1.2,0.5,1.2,1.2v2.7c0,0.7-0.5,1.2-1.2,1.2h-10.5c-0.7,0-1.2-0.5-1.2-1.2v-2.7
			C110.3,474,110.8,473.5,111.5,473.5z"/>
		<path d="M127.1,473.5h10.5c0.7,0,1.2,0.5,1.2,1.2v2.7c0,0.7-0.5,1.2-1.2,1.2h-10.5c-0.7,0-1.2-0.5-1.2-1.2v-2.7
			C125.9,474,126.4,473.5,127.1,473.5z"/>
		<path d="M142.7,473.5h10.5c0.7,0,1.2,0.5,1.2,1.2v2.7c0,0.7-0.5,1.2-1.2,1.2h-10.5c-0.7,0-1.2-0.5-1.2-1.2v-2.7
			C141.4,474,142,473.5,142.7,473.5z"/>
		<path d="M158.6,473.5h10.5c0.7,0,1.2,0.5,1.2,1.2v2.7c0,0.7-0.5,1.2-1.2,1.2h-10.5c-0.7,0-1.2-0.5-1.2-1.2v-2.7
			C157.3,474,157.9,473.5,158.6,473.5z"/>
		<path d="M174.2,473.5h10.5c0.7,0,1.2,0.5,1.2,1.2v2.7c0,0.7-0.5,1.2-1.2,1.2h-10.5c-0.7,0-1.2-0.5-1.2-1.2v-2.7
			C172.9,474,173.5,473.5,174.2,473.5z"/>
		<path d="M189.8,473.5h10.5c0.7,0,1.2,0.5,1.2,1.2v2.7c0,0.7-0.5,1.2-1.2,1.2h-10.5c-0.7,0-1.2-0.5-1.2-1.2v-2.7
			C188.5,474,189.1,473.5,189.8,473.5z"/>
		<path d="M205.4,473.5h10.5c0.7,0,1.2,0.5,1.2,1.2v2.7c0,0.7-0.5,1.2-1.2,1.2h-10.5c-0.7,0-1.2-0.5-1.2-1.2v-2.7
			C204.1,474,204.6,473.5,205.4,473.5z"/>
		<path d="M227.4,473.5v5.1h-6.4c-0.7,0-1.2-0.5-1.2-1.2v-2.7c-0.1-0.7,0.5-1.2,1.2-1.2H227.4z"/>
		<path d="M104.4,480.4h10.5c0.7,0,1.2,0.5,1.2,1.2v2.7c0,0.7-0.5,1.2-1.2,1.2h-10.5c-0.7,0-1.2-0.5-1.2-1.2v-2.7
			C103.1,481,103.7,480.4,104.4,480.4z"/>
		<path d="M120,480.4h10.5c0.7,0,1.2,0.5,1.2,1.2v2.7c0,0.7-0.5,1.2-1.2,1.2H120c-0.7,0-1.2-0.5-1.2-1.2v-2.7
			C118.7,481,119.3,480.4,120,480.4z"/>
		<path d="M135.6,480.4h10.5c0.7,0,1.2,0.5,1.2,1.2v2.7c0,0.7-0.5,1.2-1.2,1.2h-10.5c-0.7,0-1.2-0.5-1.2-1.2v-2.7
			C134.3,481,134.9,480.4,135.6,480.4z"/>
		<path d="M151.5,480.4H162c0.7,0,1.2,0.5,1.2,1.2v2.7c0,0.7-0.5,1.2-1.2,1.2h-10.5c-0.7,0-1.2-0.5-1.2-1.2v-2.7
			C150.2,481,150.7,480.4,151.5,480.4z"/>
		<path d="M167,480.4h10.5c0.7,0,1.2,0.5,1.2,1.2v2.7c0,0.7-0.5,1.2-1.2,1.2H167c-0.7,0-1.2-0.5-1.2-1.2v-2.7
			C165.8,481,166.3,480.4,167,480.4z"/>
		<path d="M182.6,480.4h10.5c0.7,0,1.2,0.5,1.2,1.2v2.7c0,0.7-0.5,1.2-1.2,1.2h-10.5c-0.7,0-1.2-0.5-1.2-1.2v-2.7
			C181.4,481,181.9,480.4,182.6,480.4z"/>
		<path d="M198.2,480.4h10.5c0.7,0,1.2,0.5,1.2,1.2v2.7c0,0.7-0.5,1.2-1.2,1.2h-10.5c-0.7,0-1.2-0.5-1.2-1.2v-2.7
			C197,481,197.5,480.4,198.2,480.4z"/>
		<path d="M213.8,480.4h10.5c0.7,0,1.2,0.5,1.2,1.2v2.7c0,0.7-0.5,1.2-1.2,1.2h-10.5c-0.7,0-1.2-0.5-1.2-1.2v-2.7
			C212.5,481,213.1,480.4,213.8,480.4z"/>
		<path d="M111.5,487.4H122c0.7,0,1.2,0.5,1.2,1.2v2.7c0,0.7-0.5,1.2-1.2,1.2h-10.5c-0.7,0-1.2-0.5-1.2-1.2v-2.7
			C110.3,488,110.8,487.4,111.5,487.4z"/>
		<path d="M101.5,487.4h5.3c0.7,0,1.2,0.5,1.2,1.2v2.7c0,0.6-0.5,1.2-1.2,1.2h-5.3V487.4z"/>
		<path d="M101.5,473.5h5.4c0.7,0,1.2,0.5,1.2,1.2v2.7c0,0.7-0.5,1.2-1.2,1.2h-5.3L101.5,473.5z"/>
		<path d="M127.1,487.4h10.5c0.7,0,1.2,0.5,1.2,1.2v2.7c0,0.7-0.5,1.2-1.2,1.2h-10.5c-0.7,0-1.2-0.5-1.2-1.2v-2.7
			C125.9,488,126.4,487.4,127.1,487.4z"/>
		<path d="M142.7,487.4h10.5c0.7,0,1.2,0.5,1.2,1.2v2.7c0,0.7-0.5,1.2-1.2,1.2h-10.5c-0.7,0-1.2-0.5-1.2-1.2v-2.7
			C141.4,488,142,487.4,142.7,487.4z"/>
		<path d="M158.6,487.4h10.5c0.7,0,1.2,0.5,1.2,1.2v2.7c0,0.7-0.5,1.2-1.2,1.2h-10.5c-0.7,0-1.2-0.5-1.2-1.2v-2.7
			C157.3,488,157.9,487.4,158.6,487.4z"/>
		<path d="M174.2,487.4h10.5c0.7,0,1.2,0.5,1.2,1.2v2.7c0,0.7-0.5,1.2-1.2,1.2h-10.5c-0.7,0-1.2-0.5-1.2-1.2v-2.7
			C172.9,488,173.5,487.4,174.2,487.4z"/>
		<path d="M189.8,487.4h10.5c0.7,0,1.2,0.5,1.2,1.2v2.7c0,0.7-0.5,1.2-1.2,1.2h-10.5c-0.7,0-1.2-0.5-1.2-1.2v-2.7
			C188.5,488,189.1,487.4,189.8,487.4z"/>
		<path d="M205.4,487.4h10.5c0.7,0,1.2,0.5,1.2,1.2v2.7c0,0.7-0.5,1.2-1.2,1.2h-10.5c-0.7,0-1.2-0.5-1.2-1.2v-2.7
			C204.1,488,204.6,487.4,205.4,487.4z"/>
		<path d="M227.4,487.4v5.1h-6.4c-0.7,0-1.2-0.5-1.2-1.2v-2.7c-0.1-0.7,0.5-1.2,1.2-1.2H227.4z"/>
		<path d="M116.1,495.6v2h-12.9v-2c-0.1-0.7,0.5-1.2,1.2-1.2h10.5C115.6,494.4,116.1,495,116.1,495.6z"/>
		<path d="M131.7,495.6v2h-12.9v-2c-0.1-0.7,0.5-1.2,1.2-1.2h10.5C131.1,494.4,131.7,495,131.7,495.6z"/>
		<path d="M147.3,497.6v-2c0-0.7-0.5-1.2-1.2-1.2h-10.5c-0.7,0-1.3,0.5-1.2,1.2v2H147.3z"/>
		<path d="M163.2,497.6v-2c0-0.7-0.5-1.2-1.2-1.2h-10.5c-0.7,0-1.3,0.5-1.2,1.2v2H163.2z"/>
		<path d="M178.8,497.6v-2c0-0.7-0.5-1.2-1.2-1.2H167c-0.7,0-1.3,0.5-1.2,1.2v2H178.8z"/>
		<path d="M194.3,497.6v-2c0-0.7-0.5-1.2-1.2-1.2h-10.5c-0.7,0-1.3,0.5-1.2,1.2v2H194.3z"/>
		<path d="M209.9,497.6v-2c0-0.7-0.5-1.2-1.2-1.2h-10.5c-0.7,0-1.3,0.5-1.2,1.2v2H209.9z"/>
		<path d="M225.5,497.6v-2c0-0.7-0.5-1.2-1.2-1.2h-10.5c-0.7,0-1.3,0.5-1.2,1.2v2H225.5z"/>
	</g>
	<g>
		<path d="M41.3,466.5h10.5c0.7,0,1.2,0.5,1.2,1.2v2.7c0,0.7-0.5,1.2-1.2,1.2H41.3c-0.7,0-1.2-0.5-1.2-1.2v-2.7
			C40,467,40.6,466.5,41.3,466.5z"/>
		<path d="M56.9,466.5h10.5c0.7,0,1.2,0.5,1.2,1.2v2.7c0,0.7-0.5,1.2-1.2,1.2H56.9c-0.7,0-1.2-0.5-1.2-1.2v-2.7
			C55.6,467,56.2,466.5,56.9,466.5z"/>
		<path d="M72.4,466.5H83c0.7,0,1.2,0.5,1.2,1.2v2.7c0,0.7-0.5,1.2-1.2,1.2H72.4c-0.7,0-1.2-0.5-1.2-1.2v-2.7
			C71.2,467,71.7,466.5,72.4,466.5z"/>
		<path d="M88,466.5h10.5c0.7,0,1.2,0.5,1.2,1.2v2.7c0,0.7-0.5,1.2-1.2,1.2H88c-0.7,0-1.2-0.5-1.2-1.2v-2.7
			C86.8,467,87.3,466.5,88,466.5z"/>
		<path d="M44.5,474.6v2.7c0,0.7-0.5,1.2-1.2,1.2h-5.2v-5.1h5.2C44,473.5,44.5,474,44.5,474.6z"/>
		<path d="M48.4,473.5h10.5c0.7,0,1.2,0.5,1.2,1.2v2.7c0,0.7-0.5,1.2-1.2,1.2H48.4c-0.7,0-1.2-0.5-1.2-1.2v-2.7
			C47.2,474,47.7,473.5,48.4,473.5z"/>
		<path d="M64,473.5h10.5c0.7,0,1.2,0.5,1.2,1.2v2.7c0,0.7-0.5,1.2-1.2,1.2H64c-0.7,0-1.2-0.5-1.2-1.2v-2.7
			C62.7,474,63.3,473.5,64,473.5z"/>
		<path d="M79.6,473.5h10.5c0.7,0,1.2,0.5,1.2,1.2v2.7c0,0.7-0.5,1.2-1.2,1.2H79.6c-0.7,0-1.2-0.5-1.2-1.2v-2.7
			C78.3,474,78.9,473.5,79.6,473.5z"/>
		<path d="M101.6,473.5v5.1h-6.4c-0.7,0-1.2-0.5-1.2-1.2v-2.7c-0.1-0.7,0.5-1.2,1.2-1.2H101.6z"/>
		<path d="M41.3,480.4h10.5c0.7,0,1.2,0.5,1.2,1.2v2.7c0,0.7-0.5,1.2-1.2,1.2H41.3c-0.7,0-1.2-0.5-1.2-1.2v-2.7
			C40,481,40.6,480.4,41.3,480.4z"/>
		<path d="M56.9,480.4h10.5c0.7,0,1.2,0.5,1.2,1.2v2.7c0,0.7-0.5,1.2-1.2,1.2H56.9c-0.7,0-1.2-0.5-1.2-1.2v-2.7
			C55.6,481,56.2,480.4,56.9,480.4z"/>
		<path d="M72.4,480.4H83c0.7,0,1.2,0.5,1.2,1.2v2.7c0,0.7-0.5,1.2-1.2,1.2H72.4c-0.7,0-1.2-0.5-1.2-1.2v-2.7
			C71.2,481,71.7,480.4,72.4,480.4z"/>
		<path d="M88,480.4h10.5c0.7,0,1.2,0.5,1.2,1.2v2.7c0,0.7-0.5,1.2-1.2,1.2H88c-0.7,0-1.2-0.5-1.2-1.2v-2.7
			C86.8,481,87.3,480.4,88,480.4z"/>
		<path d="M44.5,488.6v2.7c0,0.7-0.5,1.2-1.2,1.2h-5.2v-5.1h5.2C44,487.4,44.5,488,44.5,488.6z"/>
		<path d="M48.4,487.4h10.5c0.7,0,1.2,0.5,1.2,1.2v2.7c0,0.7-0.5,1.2-1.2,1.2H48.4c-0.7,0-1.2-0.5-1.2-1.2v-2.7
			C47.2,488,47.7,487.4,48.4,487.4z"/>
		<path d="M64,487.4h10.5c0.7,0,1.2,0.5,1.2,1.2v2.7c0,0.7-0.5,1.2-1.2,1.2H64c-0.7,0-1.2-0.5-1.2-1.2v-2.7
			C62.7,488,63.3,487.4,64,487.4z"/>
		<path d="M79.6,487.4h10.5c0.7,0,1.2,0.5,1.2,1.2v2.7c0,0.7-0.5,1.2-1.2,1.2H79.6c-0.7,0-1.2-0.5-1.2-1.2v-2.7
			C78.3,488,78.9,487.4,79.6,487.4z"/>
		<path d="M101.6,487.4v5.1h-6.4c-0.7,0-1.2-0.5-1.2-1.2v-2.7c-0.1-0.7,0.5-1.2,1.2-1.2H101.6z"/>
		<path d="M53,497.6v-2c0-0.7-0.5-1.2-1.2-1.2H41.3c-0.7,0-1.3,0.5-1.2,1.2v2H53z"/>
		<path d="M68.6,497.6v-2c0-0.7-0.5-1.2-1.2-1.2H56.9c-0.7,0-1.3,0.5-1.2,1.2v2H68.6z"/>
		<path d="M84.2,497.6v-2c0-0.7-0.5-1.2-1.2-1.2H72.4c-0.7,0-1.3,0.5-1.2,1.2v2H84.2z"/>
		<path d="M99.7,497.6v-2c0-0.7-0.5-1.2-1.2-1.2H88c-0.7,0-1.3,0.5-1.2,1.2v2H99.7z"/>
	</g>
</g>
<g>
	<g>
		<path d="M292.8,466.5h10.5c0.7,0,1.2,0.5,1.2,1.2v2.7c0,0.7-0.5,1.2-1.2,1.2h-10.5c-0.7,0-1.2-0.5-1.2-1.2v-2.7
			C291.6,467,292.1,466.5,292.8,466.5z"/>
		<path d="M308.4,466.5h10.5c0.7,0,1.2,0.5,1.2,1.2v2.7c0,0.7-0.5,1.2-1.2,1.2h-10.5c-0.7,0-1.2-0.5-1.2-1.2v-2.7
			C307.2,467,307.7,466.5,308.4,466.5z"/>
		<path d="M324,466.5h10.5c0.7,0,1.2,0.5,1.2,1.2v2.7c0,0.7-0.5,1.2-1.2,1.2H324c-0.7,0-1.2-0.5-1.2-1.2v-2.7
			C322.7,467,323.3,466.5,324,466.5z"/>
		<path d="M339.9,466.5h10.5c0.7,0,1.2,0.5,1.2,1.2v2.7c0,0.7-0.5,1.2-1.2,1.2h-10.5c-0.7,0-1.2-0.5-1.2-1.2v-2.7
			C338.6,467,339.2,466.5,339.9,466.5z"/>
		<path d="M355.5,466.5H366c0.7,0,1.2,0.5,1.2,1.2v2.7c0,0.7-0.5,1.2-1.2,1.2h-10.5c-0.7,0-1.2-0.5-1.2-1.2v-2.7
			C354.2,467,354.8,466.5,355.5,466.5z"/>
		<path d="M379.4,466.5v5.1h-8.3c-0.7,0-1.2-0.5-1.2-1.2v-2.7c0-0.7,0.5-1.2,1.2-1.2H379.4z"/>
		<path d="M300,473.5h10.5c0.7,0,1.2,0.5,1.2,1.2v2.7c0,0.7-0.5,1.2-1.2,1.2H300c-0.7,0-1.2-0.5-1.2-1.2v-2.7
			C298.7,474,299.3,473.5,300,473.5z"/>
		<path d="M315.6,473.5h10.5c0.7,0,1.2,0.5,1.2,1.2v2.7c0,0.7-0.5,1.2-1.2,1.2h-10.5c-0.7,0-1.2-0.5-1.2-1.2v-2.7
			C314.3,474,314.8,473.5,315.6,473.5z"/>
		<path d="M331.1,473.5h10.5c0.7,0,1.2,0.5,1.2,1.2v2.7c0,0.7-0.5,1.2-1.2,1.2h-10.5c-0.7,0-1.2-0.5-1.2-1.2v-2.7
			C329.9,474,330.4,473.5,331.1,473.5z"/>
		<path d="M347,473.5h10.5c0.7,0,1.2,0.5,1.2,1.2v2.7c0,0.7-0.5,1.2-1.2,1.2H347c-0.7,0-1.2-0.5-1.2-1.2v-2.7
			C345.8,474,346.3,473.5,347,473.5z"/>
		<path d="M362.6,473.5h10.5c0.7,0,1.2,0.5,1.2,1.2v2.7c0,0.7-0.5,1.2-1.2,1.2h-10.5c-0.7,0-1.2-0.5-1.2-1.2v-2.7
			C361.4,474,361.9,473.5,362.6,473.5z"/>
		<path d="M379.4,473.5v5.1h-1.2c-0.7,0-1.2-0.6-1.2-1.2v-2.7c0-0.7,0.5-1.2,1.2-1.2H379.4z"/>
		<path d="M292.8,480.4h10.5c0.7,0,1.2,0.5,1.2,1.2v2.7c0,0.7-0.5,1.2-1.2,1.2h-10.5c-0.7,0-1.2-0.5-1.2-1.2v-2.7
			C291.6,481,292.1,480.4,292.8,480.4z"/>
		<path d="M308.4,480.4h10.5c0.7,0,1.2,0.5,1.2,1.2v2.7c0,0.7-0.5,1.2-1.2,1.2h-10.5c-0.7,0-1.2-0.5-1.2-1.2v-2.7
			C307.2,481,307.7,480.4,308.4,480.4z"/>
		<path d="M324,480.4h10.5c0.7,0,1.2,0.5,1.2,1.2v2.7c0,0.7-0.5,1.2-1.2,1.2H324c-0.7,0-1.2-0.5-1.2-1.2v-2.7
			C322.7,481,323.3,480.4,324,480.4z"/>
		<path d="M339.9,480.4h10.5c0.7,0,1.2,0.5,1.2,1.2v2.7c0,0.7-0.5,1.2-1.2,1.2h-10.5c-0.7,0-1.2-0.5-1.2-1.2v-2.7
			C338.6,481,339.2,480.4,339.9,480.4z"/>
		<path d="M355.5,480.4H366c0.7,0,1.2,0.5,1.2,1.2v2.7c0,0.7-0.5,1.2-1.2,1.2h-10.5c-0.7,0-1.2-0.5-1.2-1.2v-2.7
			C354.2,481,354.8,480.4,355.5,480.4z"/>
		<path d="M379.4,480.4v5.1h-8.3c-0.7,0-1.2-0.5-1.2-1.2v-2.7c0-0.7,0.5-1.2,1.2-1.2H379.4z"/>
		<path d="M300,487.4h10.5c0.7,0,1.2,0.5,1.2,1.2v2.7c0,0.7-0.5,1.2-1.2,1.2H300c-0.7,0-1.2-0.5-1.2-1.2v-2.7
			C298.7,488,299.3,487.4,300,487.4z"/>
		<path d="M290,487.4h5.3c0.7,0,1.2,0.5,1.2,1.2v2.7c0,0.6-0.5,1.2-1.2,1.2H290V487.4z"/>
		<path d="M289.9,473.5h5.4c0.7,0,1.2,0.5,1.2,1.2v2.7c0,0.7-0.5,1.2-1.2,1.2H290L289.9,473.5z"/>
		<path d="M315.6,487.4h10.5c0.7,0,1.2,0.5,1.2,1.2v2.7c0,0.7-0.5,1.2-1.2,1.2h-10.5c-0.7,0-1.2-0.5-1.2-1.2v-2.7
			C314.3,488,314.8,487.4,315.6,487.4z"/>
		<path d="M331.1,487.4h10.5c0.7,0,1.2,0.5,1.2,1.2v2.7c0,0.7-0.5,1.2-1.2,1.2h-10.5c-0.7,0-1.2-0.5-1.2-1.2v-2.7
			C329.9,488,330.4,487.4,331.1,487.4z"/>
		<path d="M347,487.4h10.5c0.7,0,1.2,0.5,1.2,1.2v2.7c0,0.7-0.5,1.2-1.2,1.2H347c-0.7,0-1.2-0.5-1.2-1.2v-2.7
			C345.8,488,346.3,487.4,347,487.4z"/>
		<path d="M362.6,487.4h10.5c0.7,0,1.2,0.5,1.2,1.2v2.7c0,0.7-0.5,1.2-1.2,1.2h-10.5c-0.7,0-1.2-0.5-1.2-1.2v-2.7
			C361.4,488,361.9,487.4,362.6,487.4z"/>
		<path d="M379.4,487.4v5.1h-1.2c-0.7,0-1.2-0.5-1.2-1.2v-2.7c0-0.7,0.5-1.2,1.2-1.2H379.4z"/>
		<path d="M304.5,495.6v2h-12.9v-2c-0.1-0.7,0.5-1.2,1.2-1.2h10.5C304,494.4,304.5,495,304.5,495.6z"/>
		<path d="M320.1,495.6v2h-12.9v-2c-0.1-0.7,0.5-1.2,1.2-1.2h10.5C319.6,494.4,320.1,495,320.1,495.6z"/>
		<path d="M335.7,497.6v-2c0-0.7-0.5-1.2-1.2-1.2H324c-0.7,0-1.3,0.5-1.2,1.2v2H335.7z"/>
		<path d="M351.6,497.6v-2c0-0.7-0.5-1.2-1.2-1.2h-10.5c-0.7,0-1.3,0.5-1.2,1.2v2H351.6z"/>
		<path d="M367.2,497.6v-2c0-0.7-0.5-1.2-1.2-1.2h-10.5c-0.7,0-1.3,0.5-1.2,1.2v2H367.2z"/>
		<path d="M379.4,494.4v3.2h-9.5v-2c0-0.3,0.1-0.7,0.3-0.9c0.2-0.2,0.5-0.3,0.9-0.3H379.4z"/>
	</g>
	<g>
		<path d="M229.7,466.5h10.5c0.7,0,1.2,0.5,1.2,1.2v2.7c0,0.7-0.5,1.2-1.2,1.2h-10.5c-0.7,0-1.2-0.5-1.2-1.2v-2.7
			C228.5,467,229,466.5,229.7,466.5z"/>
		<path d="M245.3,466.5h10.5c0.7,0,1.2,0.5,1.2,1.2v2.7c0,0.7-0.5,1.2-1.2,1.2h-10.5c-0.7,0-1.2-0.5-1.2-1.2v-2.7
			C244.1,467,244.6,466.5,245.3,466.5z"/>
		<path d="M260.9,466.5h10.5c0.7,0,1.2,0.5,1.2,1.2v2.7c0,0.7-0.5,1.2-1.2,1.2h-10.5c-0.7,0-1.2-0.5-1.2-1.2v-2.7
			C259.6,467,260.2,466.5,260.9,466.5z"/>
		<path d="M276.5,466.5H287c0.7,0,1.2,0.5,1.2,1.2v2.7c0,0.7-0.5,1.2-1.2,1.2h-10.5c-0.7,0-1.2-0.5-1.2-1.2v-2.7
			C275.2,467,275.8,466.5,276.5,466.5z"/>
		<path d="M233,474.7v2.7c0,0.7-0.5,1.2-1.2,1.2h-5.2v-5.1h5.2C232.4,473.5,233,474,233,474.7z"/>
		<path d="M236.9,473.5h10.5c0.7,0,1.2,0.5,1.2,1.2v2.7c0,0.7-0.5,1.2-1.2,1.2h-10.5c-0.7,0-1.2-0.5-1.2-1.2v-2.7
			C235.6,474,236.1,473.5,236.9,473.5z"/>
		<path d="M252.4,473.5H263c0.7,0,1.2,0.5,1.2,1.2v2.7c0,0.7-0.5,1.2-1.2,1.2h-10.5c-0.7,0-1.2-0.5-1.2-1.2v-2.7
			C251.2,474,251.7,473.5,252.4,473.5z"/>
		<path d="M268,473.5h10.5c0.7,0,1.2,0.5,1.2,1.2v2.7c0,0.7-0.5,1.2-1.2,1.2H268c-0.7,0-1.2-0.5-1.2-1.2v-2.7
			C266.8,474,267.3,473.5,268,473.5z"/>
		<path d="M290,473.5v5.1h-6.4c-0.7,0-1.2-0.5-1.2-1.2v-2.7c-0.1-0.7,0.5-1.2,1.2-1.2H290z"/>
		<path d="M229.7,480.4h10.5c0.7,0,1.2,0.5,1.2,1.2v2.7c0,0.7-0.5,1.2-1.2,1.2h-10.5c-0.7,0-1.2-0.5-1.2-1.2v-2.7
			C228.5,481,229,480.4,229.7,480.4z"/>
		<path d="M245.3,480.4h10.5c0.7,0,1.2,0.5,1.2,1.2v2.7c0,0.7-0.5,1.2-1.2,1.2h-10.5c-0.7,0-1.2-0.5-1.2-1.2v-2.7
			C244.1,481,244.6,480.4,245.3,480.4z"/>
		<path d="M260.9,480.4h10.5c0.7,0,1.2,0.5,1.2,1.2v2.7c0,0.7-0.5,1.2-1.2,1.2h-10.5c-0.7,0-1.2-0.5-1.2-1.2v-2.7
			C259.6,481,260.2,480.4,260.9,480.4z"/>
		<path d="M276.5,480.4H287c0.7,0,1.2,0.5,1.2,1.2v2.7c0,0.7-0.5,1.2-1.2,1.2h-10.5c-0.7,0-1.2-0.5-1.2-1.2v-2.7
			C275.2,481,275.8,480.4,276.5,480.4z"/>
		<path d="M233,488.6v2.7c0,0.7-0.5,1.2-1.2,1.2h-5.2v-5.1h5.2C232.4,487.4,233,488,233,488.6z"/>
		<path d="M236.9,487.4h10.5c0.7,0,1.2,0.5,1.2,1.2v2.7c0,0.7-0.5,1.2-1.2,1.2h-10.5c-0.7,0-1.2-0.5-1.2-1.2v-2.7
			C235.6,488,236.1,487.4,236.9,487.4z"/>
		<path d="M252.4,487.4H263c0.7,0,1.2,0.5,1.2,1.2v2.7c0,0.7-0.5,1.2-1.2,1.2h-10.5c-0.7,0-1.2-0.5-1.2-1.2v-2.7
			C251.2,488,251.7,487.4,252.4,487.4z"/>
		<path d="M268,487.4h10.5c0.7,0,1.2,0.5,1.2,1.2v2.7c0,0.7-0.5,1.2-1.2,1.2H268c-0.7,0-1.2-0.5-1.2-1.2v-2.7
			C266.8,488,267.3,487.4,268,487.4z"/>
		<path d="M290,487.4v5.1h-6.4c-0.7,0-1.2-0.5-1.2-1.2v-2.7c-0.1-0.7,0.5-1.2,1.2-1.2H290z"/>
		<path d="M241.4,497.6v-2c0-0.7-0.5-1.2-1.2-1.2h-10.5c-0.7,0-1.3,0.5-1.2,1.2v2H241.4z"/>
		<path d="M257,497.6v-2c0-0.7-0.5-1.2-1.2-1.2h-10.5c-0.7,0-1.3,0.5-1.2,1.2v2H257z"/>
		<path d="M272.6,497.6v-2c0-0.7-0.5-1.2-1.2-1.2h-10.5c-0.7,0-1.3,0.5-1.2,1.2v2H272.6z"/>
		<path d="M288.2,497.6v-2c0-0.7-0.5-1.2-1.2-1.2h-10.5c-0.7,0-1.3,0.5-1.2,1.2v2H288.2z"/>
	</g>
</g>
<g>
	<g>
		<path d="M104.4,494.4h10.5c0.7,0,1.2,0.5,1.2,1.2v2.7c0,0.7-0.5,1.2-1.2,1.2h-10.5c-0.7,0-1.2-0.5-1.2-1.2v-2.7
			C103.1,495,103.7,494.4,104.4,494.4z"/>
		<path d="M120,494.4h10.5c0.7,0,1.2,0.5,1.2,1.2v2.7c0,0.7-0.5,1.2-1.2,1.2H120c-0.7,0-1.2-0.5-1.2-1.2v-2.7
			C118.7,495,119.3,494.4,120,494.4z"/>
		<path d="M135.6,494.4h10.5c0.7,0,1.2,0.5,1.2,1.2v2.7c0,0.7-0.5,1.2-1.2,1.2h-10.5c-0.7,0-1.2-0.5-1.2-1.2v-2.7
			C134.3,495,134.9,494.4,135.6,494.4z"/>
		<path d="M151.5,494.4H162c0.7,0,1.2,0.5,1.2,1.2v2.7c0,0.7-0.5,1.2-1.2,1.2h-10.5c-0.7,0-1.2-0.5-1.2-1.2v-2.7
			C150.2,495,150.7,494.4,151.5,494.4z"/>
		<path d="M167,494.4h10.5c0.7,0,1.2,0.5,1.2,1.2v2.7c0,0.7-0.5,1.2-1.2,1.2H167c-0.7,0-1.2-0.5-1.2-1.2v-2.7
			C165.8,495,166.3,494.4,167,494.4z"/>
		<path d="M182.6,494.4h10.5c0.7,0,1.2,0.5,1.2,1.2v2.7c0,0.7-0.5,1.2-1.2,1.2h-10.5c-0.7,0-1.2-0.5-1.2-1.2v-2.7
			C181.4,495,181.9,494.4,182.6,494.4z"/>
		<path d="M198.2,494.4h10.5c0.7,0,1.2,0.5,1.2,1.2v2.7c0,0.7-0.5,1.2-1.2,1.2h-10.5c-0.7,0-1.2-0.5-1.2-1.2v-2.7
			C197,495,197.5,494.4,198.2,494.4z"/>
		<path d="M213.8,494.4h10.5c0.7,0,1.2,0.5,1.2,1.2v2.7c0,0.7-0.5,1.2-1.2,1.2h-10.5c-0.7,0-1.2-0.5-1.2-1.2v-2.7
			C212.5,495,213.1,494.4,213.8,494.4z"/>
		<path d="M111.5,501.4H122c0.7,0,1.2,0.5,1.2,1.2v2.7c0,0.7-0.5,1.2-1.2,1.2h-10.5c-0.7,0-1.2-0.5-1.2-1.2v-2.7
			C110.3,501.9,110.8,501.4,111.5,501.4z"/>
		<path d="M127.1,501.4h10.5c0.7,0,1.2,0.5,1.2,1.2v2.7c0,0.7-0.5,1.2-1.2,1.2h-10.5c-0.7,0-1.2-0.5-1.2-1.2v-2.7
			C125.9,501.9,126.4,501.4,127.1,501.4z"/>
		<path d="M142.7,501.4h10.5c0.7,0,1.2,0.5,1.2,1.2v2.7c0,0.7-0.5,1.2-1.2,1.2h-10.5c-0.7,0-1.2-0.5-1.2-1.2v-2.7
			C141.4,501.9,142,501.4,142.7,501.4z"/>
		<path d="M158.6,501.4h10.5c0.7,0,1.2,0.5,1.2,1.2v2.7c0,0.7-0.5,1.2-1.2,1.2h-10.5c-0.7,0-1.2-0.5-1.2-1.2v-2.7
			C157.3,501.9,157.9,501.4,158.6,501.4z"/>
		<path d="M174.2,501.4h10.5c0.7,0,1.2,0.5,1.2,1.2v2.7c0,0.7-0.5,1.2-1.2,1.2h-10.5c-0.7,0-1.2-0.5-1.2-1.2v-2.7
			C172.9,501.9,173.5,501.4,174.2,501.4z"/>
		<path d="M189.8,501.4h10.5c0.7,0,1.2,0.5,1.2,1.2v2.7c0,0.7-0.5,1.2-1.2,1.2h-10.5c-0.7,0-1.2-0.5-1.2-1.2v-2.7
			C188.5,501.9,189.1,501.4,189.8,501.4z"/>
		<path d="M205.4,501.4h10.5c0.7,0,1.2,0.5,1.2,1.2v2.7c0,0.7-0.5,1.2-1.2,1.2h-10.5c-0.7,0-1.2-0.5-1.2-1.2v-2.7
			C204.1,501.9,204.6,501.4,205.4,501.4z"/>
		<path d="M227.4,501.4v5.1h-6.4c-0.7,0-1.2-0.5-1.2-1.2v-2.7c-0.1-0.7,0.5-1.2,1.2-1.2H227.4z"/>
		<path d="M104.4,508.4h10.5c0.7,0,1.2,0.5,1.2,1.2v2.7c0,0.7-0.5,1.2-1.2,1.2h-10.5c-0.7,0-1.2-0.5-1.2-1.2v-2.7
			C103.1,508.9,103.7,508.4,104.4,508.4z"/>
		<path d="M120,508.4h10.5c0.7,0,1.2,0.5,1.2,1.2v2.7c0,0.7-0.5,1.2-1.2,1.2H120c-0.7,0-1.2-0.5-1.2-1.2v-2.7
			C118.7,508.9,119.3,508.4,120,508.4z"/>
		<path d="M135.6,508.4h10.5c0.7,0,1.2,0.5,1.2,1.2v2.7c0,0.7-0.5,1.2-1.2,1.2h-10.5c-0.7,0-1.2-0.5-1.2-1.2v-2.7
			C134.3,508.9,134.9,508.4,135.6,508.4z"/>
		<path d="M151.5,508.4H162c0.7,0,1.2,0.5,1.2,1.2v2.7c0,0.7-0.5,1.2-1.2,1.2h-10.5c-0.7,0-1.2-0.5-1.2-1.2v-2.7
			C150.2,508.9,150.7,508.4,151.5,508.4z"/>
		<path d="M167,508.4h10.5c0.7,0,1.2,0.5,1.2,1.2v2.7c0,0.7-0.5,1.2-1.2,1.2H167c-0.7,0-1.2-0.5-1.2-1.2v-2.7
			C165.8,508.9,166.3,508.4,167,508.4z"/>
		<path d="M182.6,508.4h10.5c0.7,0,1.2,0.5,1.2,1.2v2.7c0,0.7-0.5,1.2-1.2,1.2h-10.5c-0.7,0-1.2-0.5-1.2-1.2v-2.7
			C181.4,508.9,181.9,508.4,182.6,508.4z"/>
		<path d="M198.2,508.4h10.5c0.7,0,1.2,0.5,1.2,1.2v2.7c0,0.7-0.5,1.2-1.2,1.2h-10.5c-0.7,0-1.2-0.5-1.2-1.2v-2.7
			C197,508.9,197.5,508.4,198.2,508.4z"/>
		<path d="M213.8,508.4h10.5c0.7,0,1.2,0.5,1.2,1.2v2.7c0,0.7-0.5,1.2-1.2,1.2h-10.5c-0.7,0-1.2-0.5-1.2-1.2v-2.7
			C212.5,508.9,213.1,508.4,213.8,508.4z"/>
		<path d="M111.5,515.4H122c0.7,0,1.2,0.5,1.2,1.2v2.7c0,0.7-0.5,1.2-1.2,1.2h-10.5c-0.7,0-1.2-0.5-1.2-1.2v-2.7
			C110.3,515.9,110.8,515.4,111.5,515.4z"/>
		<path d="M101.5,515.4h5.3c0.7,0,1.2,0.5,1.2,1.2v2.7c0,0.6-0.5,1.2-1.2,1.2h-5.3V515.4z"/>
		<path d="M101.5,501.4h5.4c0.7,0,1.2,0.5,1.2,1.2v2.7c0,0.7-0.5,1.2-1.2,1.2h-5.3L101.5,501.4z"/>
		<path d="M127.1,515.4h10.5c0.7,0,1.2,0.5,1.2,1.2v2.7c0,0.7-0.5,1.2-1.2,1.2h-10.5c-0.7,0-1.2-0.5-1.2-1.2v-2.7
			C125.9,515.9,126.4,515.4,127.1,515.4z"/>
		<path d="M142.7,515.4h10.5c0.7,0,1.2,0.5,1.2,1.2v2.7c0,0.7-0.5,1.2-1.2,1.2h-10.5c-0.7,0-1.2-0.5-1.2-1.2v-2.7
			C141.4,515.9,142,515.4,142.7,515.4z"/>
		<path d="M158.6,515.4h10.5c0.7,0,1.2,0.5,1.2,1.2v2.7c0,0.7-0.5,1.2-1.2,1.2h-10.5c-0.7,0-1.2-0.5-1.2-1.2v-2.7
			C157.3,515.9,157.9,515.4,158.6,515.4z"/>
		<path d="M174.2,515.4h10.5c0.7,0,1.2,0.5,1.2,1.2v2.7c0,0.7-0.5,1.2-1.2,1.2h-10.5c-0.7,0-1.2-0.5-1.2-1.2v-2.7
			C172.9,515.9,173.5,515.4,174.2,515.4z"/>
		<path d="M189.8,515.4h10.5c0.7,0,1.2,0.5,1.2,1.2v2.7c0,0.7-0.5,1.2-1.2,1.2h-10.5c-0.7,0-1.2-0.5-1.2-1.2v-2.7
			C188.5,515.9,189.1,515.4,189.8,515.4z"/>
		<path d="M205.4,515.4h10.5c0.7,0,1.2,0.5,1.2,1.2v2.7c0,0.7-0.5,1.2-1.2,1.2h-10.5c-0.7,0-1.2-0.5-1.2-1.2v-2.7
			C204.1,515.9,204.6,515.4,205.4,515.4z"/>
		<path d="M227.4,515.4v5.1h-6.4c-0.7,0-1.2-0.5-1.2-1.2v-2.7c-0.1-0.7,0.5-1.2,1.2-1.2H227.4z"/>
		<path d="M116.1,523.6v2h-12.9v-2c-0.1-0.7,0.5-1.2,1.2-1.2h10.5C115.6,522.4,116.1,522.9,116.1,523.6z"/>
		<path d="M131.7,523.6v2h-12.9v-2c-0.1-0.7,0.5-1.2,1.2-1.2h10.5C131.1,522.4,131.7,522.9,131.7,523.6z"/>
		<path d="M147.3,525.6v-2c0-0.7-0.5-1.2-1.2-1.2h-10.5c-0.7,0-1.3,0.5-1.2,1.2v2H147.3z"/>
		<path d="M163.2,525.6v-2c0-0.7-0.5-1.2-1.2-1.2h-10.5c-0.7,0-1.3,0.5-1.2,1.2v2H163.2z"/>
		<path d="M178.8,525.6v-2c0-0.7-0.5-1.2-1.2-1.2H167c-0.7,0-1.3,0.5-1.2,1.2v2H178.8z"/>
		<path d="M194.3,525.6v-2c0-0.7-0.5-1.2-1.2-1.2h-10.5c-0.7,0-1.3,0.5-1.2,1.2v2H194.3z"/>
		<path d="M209.9,525.6v-2c0-0.7-0.5-1.2-1.2-1.2h-10.5c-0.7,0-1.3,0.5-1.2,1.2v2H209.9z"/>
		<path d="M225.5,525.6v-2c0-0.7-0.5-1.2-1.2-1.2h-10.5c-0.7,0-1.3,0.5-1.2,1.2v2H225.5z"/>
	</g>
	<g>
		<path d="M41.3,494.4h10.5c0.7,0,1.2,0.5,1.2,1.2v2.7c0,0.7-0.5,1.2-1.2,1.2H41.3c-0.7,0-1.2-0.5-1.2-1.2v-2.7
			C40,495,40.6,494.4,41.3,494.4z"/>
		<path d="M56.9,494.4h10.5c0.7,0,1.2,0.5,1.2,1.2v2.7c0,0.7-0.5,1.2-1.2,1.2H56.9c-0.7,0-1.2-0.5-1.2-1.2v-2.7
			C55.6,495,56.2,494.4,56.9,494.4z"/>
		<path d="M72.4,494.4H83c0.7,0,1.2,0.5,1.2,1.2v2.7c0,0.7-0.5,1.2-1.2,1.2H72.4c-0.7,0-1.2-0.5-1.2-1.2v-2.7
			C71.2,495,71.7,494.4,72.4,494.4z"/>
		<path d="M88,494.4h10.5c0.7,0,1.2,0.5,1.2,1.2v2.7c0,0.7-0.5,1.2-1.2,1.2H88c-0.7,0-1.2-0.5-1.2-1.2v-2.7
			C86.8,495,87.3,494.4,88,494.4z"/>
		<path d="M44.5,502.6v2.7c0,0.7-0.5,1.2-1.2,1.2h-5.2v-5.1h5.2C44,501.4,44.5,501.9,44.5,502.6z"/>
		<path d="M48.4,501.4h10.5c0.7,0,1.2,0.5,1.2,1.2v2.7c0,0.7-0.5,1.2-1.2,1.2H48.4c-0.7,0-1.2-0.5-1.2-1.2v-2.7
			C47.2,501.9,47.7,501.4,48.4,501.4z"/>
		<path d="M64,501.4h10.5c0.7,0,1.2,0.5,1.2,1.2v2.7c0,0.7-0.5,1.2-1.2,1.2H64c-0.7,0-1.2-0.5-1.2-1.2v-2.7
			C62.7,501.9,63.3,501.4,64,501.4z"/>
		<path d="M79.6,501.4h10.5c0.7,0,1.2,0.5,1.2,1.2v2.7c0,0.7-0.5,1.2-1.2,1.2H79.6c-0.7,0-1.2-0.5-1.2-1.2v-2.7
			C78.3,501.9,78.9,501.4,79.6,501.4z"/>
		<path d="M101.6,501.4v5.1h-6.4c-0.7,0-1.2-0.5-1.2-1.2v-2.7c-0.1-0.7,0.5-1.2,1.2-1.2H101.6z"/>
		<path d="M41.3,508.4h10.5c0.7,0,1.2,0.5,1.2,1.2v2.7c0,0.7-0.5,1.2-1.2,1.2H41.3c-0.7,0-1.2-0.5-1.2-1.2v-2.7
			C40,508.9,40.6,508.4,41.3,508.4z"/>
		<path d="M56.9,508.4h10.5c0.7,0,1.2,0.5,1.2,1.2v2.7c0,0.7-0.5,1.2-1.2,1.2H56.9c-0.7,0-1.2-0.5-1.2-1.2v-2.7
			C55.6,508.9,56.2,508.4,56.9,508.4z"/>
		<path d="M72.4,508.4H83c0.7,0,1.2,0.5,1.2,1.2v2.7c0,0.7-0.5,1.2-1.2,1.2H72.4c-0.7,0-1.2-0.5-1.2-1.2v-2.7
			C71.2,508.9,71.7,508.4,72.4,508.4z"/>
		<path d="M88,508.4h10.5c0.7,0,1.2,0.5,1.2,1.2v2.7c0,0.7-0.5,1.2-1.2,1.2H88c-0.7,0-1.2-0.5-1.2-1.2v-2.7
			C86.8,508.9,87.3,508.4,88,508.4z"/>
		<path d="M44.5,516.6v2.7c0,0.7-0.5,1.2-1.2,1.2h-5.2v-5.1h5.2C44,515.4,44.5,515.9,44.5,516.6z"/>
		<path d="M48.4,515.4h10.5c0.7,0,1.2,0.5,1.2,1.2v2.7c0,0.7-0.5,1.2-1.2,1.2H48.4c-0.7,0-1.2-0.5-1.2-1.2v-2.7
			C47.2,515.9,47.7,515.4,48.4,515.4z"/>
		<path d="M64,515.4h10.5c0.7,0,1.2,0.5,1.2,1.2v2.7c0,0.7-0.5,1.2-1.2,1.2H64c-0.7,0-1.2-0.5-1.2-1.2v-2.7
			C62.7,515.9,63.3,515.4,64,515.4z"/>
		<path d="M79.6,515.4h10.5c0.7,0,1.2,0.5,1.2,1.2v2.7c0,0.7-0.5,1.2-1.2,1.2H79.6c-0.7,0-1.2-0.5-1.2-1.2v-2.7
			C78.3,515.9,78.9,515.4,79.6,515.4z"/>
		<path d="M101.6,515.4v5.1h-6.4c-0.7,0-1.2-0.5-1.2-1.2v-2.7c-0.1-0.7,0.5-1.2,1.2-1.2H101.6z"/>
		<path d="M53,525.6v-2c0-0.7-0.5-1.2-1.2-1.2H41.3c-0.7,0-1.3,0.5-1.2,1.2v2H53z"/>
		<path d="M68.6,525.6v-2c0-0.7-0.5-1.2-1.2-1.2H56.9c-0.7,0-1.3,0.5-1.2,1.2v2H68.6z"/>
		<path d="M84.2,525.6v-2c0-0.7-0.5-1.2-1.2-1.2H72.4c-0.7,0-1.3,0.5-1.2,1.2v2H84.2z"/>
		<path d="M99.7,525.6v-2c0-0.7-0.5-1.2-1.2-1.2H88c-0.7,0-1.3,0.5-1.2,1.2v2H99.7z"/>
	</g>
</g>
<g>
	<g>
		<path d="M292.8,494.4h10.5c0.7,0,1.2,0.5,1.2,1.2v2.7c0,0.7-0.5,1.2-1.2,1.2h-10.5c-0.7,0-1.2-0.5-1.2-1.2v-2.7
			C291.6,495,292.1,494.4,292.8,494.4z"/>
		<path d="M308.4,494.4h10.5c0.7,0,1.2,0.5,1.2,1.2v2.7c0,0.7-0.5,1.2-1.2,1.2h-10.5c-0.7,0-1.2-0.5-1.2-1.2v-2.7
			C307.2,495,307.7,494.4,308.4,494.4z"/>
		<path d="M324,494.4h10.5c0.7,0,1.2,0.5,1.2,1.2v2.7c0,0.7-0.5,1.2-1.2,1.2H324c-0.7,0-1.2-0.5-1.2-1.2v-2.7
			C322.7,495,323.3,494.4,324,494.4z"/>
		<path d="M339.9,494.4h10.5c0.7,0,1.2,0.5,1.2,1.2v2.7c0,0.7-0.5,1.2-1.2,1.2h-10.5c-0.7,0-1.2-0.5-1.2-1.2v-2.7
			C338.6,495,339.2,494.4,339.9,494.4z"/>
		<path d="M355.5,494.4H366c0.7,0,1.2,0.5,1.2,1.2v2.7c0,0.7-0.5,1.2-1.2,1.2h-10.5c-0.7,0-1.2-0.5-1.2-1.2v-2.7
			C354.2,495,354.8,494.4,355.5,494.4z"/>
		<path d="M379.4,494.4v5.1h-8.3c-0.7,0-1.2-0.5-1.2-1.2v-2.7c0-0.3,0.1-0.7,0.3-0.9c0.2-0.2,0.5-0.3,0.9-0.3H379.4z"/>
		<path d="M300,501.4h10.5c0.7,0,1.2,0.5,1.2,1.2v2.7c0,0.7-0.5,1.2-1.2,1.2H300c-0.7,0-1.2-0.5-1.2-1.2v-2.7
			C298.7,502,299.3,501.4,300,501.4z"/>
		<path d="M315.6,501.4h10.5c0.7,0,1.2,0.5,1.2,1.2v2.7c0,0.7-0.5,1.2-1.2,1.2h-10.5c-0.7,0-1.2-0.5-1.2-1.2v-2.7
			C314.3,502,314.8,501.4,315.6,501.4z"/>
		<path d="M331.1,501.4h10.5c0.7,0,1.2,0.5,1.2,1.2v2.7c0,0.7-0.5,1.2-1.2,1.2h-10.5c-0.7,0-1.2-0.5-1.2-1.2v-2.7
			C329.9,502,330.4,501.4,331.1,501.4z"/>
		<path d="M347,501.4h10.5c0.7,0,1.2,0.5,1.2,1.2v2.7c0,0.7-0.5,1.2-1.2,1.2H347c-0.7,0-1.2-0.5-1.2-1.2v-2.7
			C345.8,502,346.3,501.4,347,501.4z"/>
		<path d="M362.6,501.4h10.5c0.7,0,1.2,0.5,1.2,1.2v2.7c0,0.7-0.5,1.2-1.2,1.2h-10.5c-0.7,0-1.2-0.5-1.2-1.2v-2.7
			C361.4,502,361.9,501.4,362.6,501.4z"/>
		<path d="M379.4,501.4v5.1h-1.2c-0.7,0-1.2-0.5-1.2-1.2v-2.7c0-0.7,0.5-1.2,1.2-1.2H379.4z"/>
		<path d="M292.8,508.4h10.5c0.7,0,1.2,0.5,1.2,1.2v2.7c0,0.7-0.5,1.2-1.2,1.2h-10.5c-0.7,0-1.2-0.5-1.2-1.2v-2.7
			C291.6,508.9,292.1,508.4,292.8,508.4z"/>
		<path d="M308.4,508.4h10.5c0.7,0,1.2,0.5,1.2,1.2v2.7c0,0.7-0.5,1.2-1.2,1.2h-10.5c-0.7,0-1.2-0.5-1.2-1.2v-2.7
			C307.2,508.9,307.7,508.4,308.4,508.4z"/>
		<path d="M324,508.4h10.5c0.7,0,1.2,0.5,1.2,1.2v2.7c0,0.7-0.5,1.2-1.2,1.2H324c-0.7,0-1.2-0.5-1.2-1.2v-2.7
			C322.7,508.9,323.3,508.4,324,508.4z"/>
		<path d="M339.9,508.4h10.5c0.7,0,1.2,0.5,1.2,1.2v2.7c0,0.7-0.5,1.2-1.2,1.2h-10.5c-0.7,0-1.2-0.5-1.2-1.2v-2.7
			C338.6,508.9,339.2,508.4,339.9,508.4z"/>
		<path d="M355.5,508.4H366c0.7,0,1.2,0.5,1.2,1.2v2.7c0,0.7-0.5,1.2-1.2,1.2h-10.5c-0.7,0-1.2-0.5-1.2-1.2v-2.7
			C354.2,508.9,354.8,508.4,355.5,508.4z"/>
		<path d="M379.4,508.4v5.1h-8.3c-0.7,0-1.2-0.5-1.2-1.2v-2.7c0-0.7,0.5-1.2,1.2-1.2H379.4z"/>
		<path d="M300,515.4h10.5c0.7,0,1.2,0.5,1.2,1.2v2.7c0,0.7-0.5,1.2-1.2,1.2H300c-0.7,0-1.2-0.5-1.2-1.2v-2.7
			C298.7,515.9,299.3,515.4,300,515.4z"/>
		<path d="M290,515.4h5.3c0.7,0,1.2,0.5,1.2,1.2v2.7c0,0.6-0.5,1.2-1.2,1.2H290V515.4z"/>
		<path d="M289.9,501.4h5.4c0.7,0,1.2,0.5,1.2,1.2v2.7c0,0.7-0.5,1.2-1.2,1.2H290L289.9,501.4z"/>
		<path d="M315.6,515.4h10.5c0.7,0,1.2,0.5,1.2,1.2v2.7c0,0.7-0.5,1.2-1.2,1.2h-10.5c-0.7,0-1.2-0.5-1.2-1.2v-2.7
			C314.3,515.9,314.8,515.4,315.6,515.4z"/>
		<path d="M331.1,515.4h10.5c0.7,0,1.2,0.5,1.2,1.2v2.7c0,0.7-0.5,1.2-1.2,1.2h-10.5c-0.7,0-1.2-0.5-1.2-1.2v-2.7
			C329.9,515.9,330.4,515.4,331.1,515.4z"/>
		<path d="M347,515.4h10.5c0.7,0,1.2,0.5,1.2,1.2v2.7c0,0.7-0.5,1.2-1.2,1.2H347c-0.7,0-1.2-0.5-1.2-1.2v-2.7
			C345.8,515.9,346.3,515.4,347,515.4z"/>
		<path d="M362.6,515.4h10.5c0.7,0,1.2,0.5,1.2,1.2v2.7c0,0.7-0.5,1.2-1.2,1.2h-10.5c-0.7,0-1.2-0.5-1.2-1.2v-2.7
			C361.4,515.9,361.9,515.4,362.6,515.4z"/>
		<path d="M379.4,515.4v5.1h-1.2c-0.7,0-1.2-0.5-1.2-1.2v-2.7c0-0.7,0.5-1.2,1.2-1.2H379.4z"/>
		<path d="M304.5,523.6v2h-12.9v-2c-0.1-0.7,0.5-1.2,1.2-1.2h10.5C304,522.4,304.5,522.9,304.5,523.6z"/>
		<path d="M320.1,523.6v2h-12.9v-2c-0.1-0.7,0.5-1.2,1.2-1.2h10.5C319.6,522.4,320.1,522.9,320.1,523.6z"/>
		<path d="M335.7,525.6v-2c0-0.7-0.5-1.2-1.2-1.2H324c-0.7,0-1.3,0.5-1.2,1.2v2H335.7z"/>
		<path d="M351.6,525.6v-2c0-0.7-0.5-1.2-1.2-1.2h-10.5c-0.7,0-1.3,0.5-1.2,1.2v2H351.6z"/>
		<path d="M367.2,525.6v-2c0-0.7-0.5-1.2-1.2-1.2h-10.5c-0.7,0-1.3,0.5-1.2,1.2v2H367.2z"/>
		<path d="M379.4,522.4v3.2h-9.5v-2c0-0.7,0.5-1.2,1.2-1.2H379.4z"/>
	</g>
	<g>
		<path d="M229.7,494.4h10.5c0.7,0,1.2,0.5,1.2,1.2v2.7c0,0.7-0.5,1.2-1.2,1.2h-10.5c-0.7,0-1.2-0.5-1.2-1.2v-2.7
			C228.5,495,229,494.4,229.7,494.4z"/>
		<path d="M245.3,494.4h10.5c0.7,0,1.2,0.5,1.2,1.2v2.7c0,0.7-0.5,1.2-1.2,1.2h-10.5c-0.7,0-1.2-0.5-1.2-1.2v-2.7
			C244.1,495,244.6,494.4,245.3,494.4z"/>
		<path d="M260.9,494.4h10.5c0.7,0,1.2,0.5,1.2,1.2v2.7c0,0.7-0.5,1.2-1.2,1.2h-10.5c-0.7,0-1.2-0.5-1.2-1.2v-2.7
			C259.6,495,260.2,494.4,260.9,494.4z"/>
		<path d="M276.5,494.4H287c0.7,0,1.2,0.5,1.2,1.2v2.7c0,0.7-0.5,1.2-1.2,1.2h-10.5c-0.7,0-1.2-0.5-1.2-1.2v-2.7
			C275.2,495,275.8,494.4,276.5,494.4z"/>
		<path d="M233,502.6v2.7c0,0.7-0.5,1.2-1.2,1.2h-5.2v-5.1h5.2C232.4,501.4,233,502,233,502.6z"/>
		<path d="M236.9,501.4h10.5c0.7,0,1.2,0.5,1.2,1.2v2.7c0,0.7-0.5,1.2-1.2,1.2h-10.5c-0.7,0-1.2-0.5-1.2-1.2v-2.7
			C235.6,502,236.1,501.4,236.9,501.4z"/>
		<path d="M252.4,501.4H263c0.7,0,1.2,0.5,1.2,1.2v2.7c0,0.7-0.5,1.2-1.2,1.2h-10.5c-0.7,0-1.2-0.5-1.2-1.2v-2.7
			C251.2,502,251.7,501.4,252.4,501.4z"/>
		<path d="M268,501.4h10.5c0.7,0,1.2,0.5,1.2,1.2v2.7c0,0.7-0.5,1.2-1.2,1.2H268c-0.7,0-1.2-0.5-1.2-1.2v-2.7
			C266.8,502,267.3,501.4,268,501.4z"/>
		<path d="M290,501.4v5.1h-6.4c-0.7,0-1.2-0.5-1.2-1.2v-2.7c-0.1-0.7,0.5-1.2,1.2-1.2H290z"/>
		<path d="M229.7,508.4h10.5c0.7,0,1.2,0.5,1.2,1.2v2.7c0,0.7-0.5,1.2-1.2,1.2h-10.5c-0.7,0-1.2-0.5-1.2-1.2v-2.7
			C228.5,508.9,229,508.4,229.7,508.4z"/>
		<path d="M245.3,508.4h10.5c0.7,0,1.2,0.5,1.2,1.2v2.7c0,0.7-0.5,1.2-1.2,1.2h-10.5c-0.7,0-1.2-0.5-1.2-1.2v-2.7
			C244.1,508.9,244.6,508.4,245.3,508.4z"/>
		<path d="M260.9,508.4h10.5c0.7,0,1.2,0.5,1.2,1.2v2.7c0,0.7-0.5,1.2-1.2,1.2h-10.5c-0.7,0-1.2-0.5-1.2-1.2v-2.7
			C259.6,508.9,260.2,508.4,260.9,508.4z"/>
		<path d="M276.5,508.4H287c0.7,0,1.2,0.5,1.2,1.2v2.7c0,0.7-0.5,1.2-1.2,1.2h-10.5c-0.7,0-1.2-0.5-1.2-1.2v-2.7
			C275.2,508.9,275.8,508.4,276.5,508.4z"/>
		<path d="M233,516.6v2.7c0,0.7-0.5,1.2-1.2,1.2h-5.2v-5.1h5.2C232.4,515.4,233,515.9,233,516.6z"/>
		<path d="M236.9,515.4h10.5c0.7,0,1.2,0.5,1.2,1.2v2.7c0,0.7-0.5,1.2-1.2,1.2h-10.5c-0.7,0-1.2-0.5-1.2-1.2v-2.7
			C235.6,515.9,236.1,515.4,236.9,515.4z"/>
		<path d="M252.4,515.4H263c0.7,0,1.2,0.5,1.2,1.2v2.7c0,0.7-0.5,1.2-1.2,1.2h-10.5c-0.7,0-1.2-0.5-1.2-1.2v-2.7
			C251.2,515.9,251.7,515.4,252.4,515.4z"/>
		<path d="M268,515.4h10.5c0.7,0,1.2,0.5,1.2,1.2v2.7c0,0.7-0.5,1.2-1.2,1.2H268c-0.7,0-1.2-0.5-1.2-1.2v-2.7
			C266.8,515.9,267.3,515.4,268,515.4z"/>
		<path d="M290,515.4v5.1h-6.4c-0.7,0-1.2-0.5-1.2-1.2v-2.7c-0.1-0.7,0.5-1.2,1.2-1.2H290z"/>
		<path d="M241.4,525.6v-2c0-0.7-0.5-1.2-1.2-1.2h-10.5c-0.7,0-1.3,0.5-1.2,1.2v2H241.4z"/>
		<path d="M257,525.6v-2c0-0.7-0.5-1.2-1.2-1.2h-10.5c-0.7,0-1.3,0.5-1.2,1.2v2H257z"/>
		<path d="M272.6,525.6v-2c0-0.7-0.5-1.2-1.2-1.2h-10.5c-0.7,0-1.3,0.5-1.2,1.2v2H272.6z"/>
		<path d="M288.2,525.6v-2c0-0.7-0.5-1.2-1.2-1.2h-10.5c-0.7,0-1.3,0.5-1.2,1.2v2H288.2z"/>
	</g>
</g>
<line class="st0" x1="41.3" y1="449.8" x2="41.3" y2="461.9"/>
<line class="st0" x1="376.2" y1="449.8" x2="376.2" y2="461.9"/>
<g>
	<path class="st1" d="M63.1,321.6v-6H43.3v6c0,1.2,0.7,2.2,1.6,2.2h16.6C62.4,323.8,63.1,322.8,63.1,321.6L63.1,321.6z"/>
	<path class="st1" d="M154.8,321.9v-6H135v5.9c0,1.2,0.8,2.3,1.7,2.3h16.5C154.2,324.1,154.8,323.1,154.8,321.9z"/>
</g>
</svg>
