<?xml version="1.0" encoding="utf-8"?>
<!-- Generator: Adobe Illustrator 28.3.0, SVG Export Plug-In . SVG Version: 6.00 Build 0)  -->
<svg version="1.1" id="Layer_1" xmlns="http://www.w3.org/2000/svg" xmlns:xlink="http://www.w3.org/1999/xlink" x="0px" y="0px"
	 viewBox="0 0 107.6 346.8" style="enable-background:new 0 0 107.6 346.8;" xml:space="preserve">
<style type="text/css">
	.st0{fill:#95B0B1;stroke:#231F20;stroke-miterlimit:10;}
</style>
<path class="st0" d="M97.5,0.4l-1.6,2.3c-0.4,0.5-0.2,1.2,0.4,1.5l0.3,0.2c0.6,0.3,0.7,1.2,0.2,1.7l-1.6,1.4
	c-0.3,0.2-0.4,0.6-0.4,0.9l0,0c0.1,0.9-1,1.5-1.7,0.9l-0.8-0.8c-0.5-0.4-1.2-0.3-1.5,0.2l-1,1.6c-0.3,0.5-0.1,1.1,0.4,1.4l2.6,1.4
	c0.4,0.2,0.6,0.7,0.5,1.1l-1.1,5c-0.1,0.4,0,0.8,0.3,1l1.3,1.1c0.5,0.5,1.3,0.3,1.6-0.4l0.8-1.9c0.2-0.6,1-0.8,1.5-0.5l3.3,2.3
	c0.5,0.3,1.2,0.2,1.5-0.4l5-9.3c0.3-0.5,0.1-1.1-0.4-1.4L103.6,8c-0.5-0.2-0.7-0.8-0.5-1.3l1-2.2c0.2-0.5,0.1-1-0.4-1.3l-4.9-3
	C98.4-0.1,97.8,0,97.5,0.4L97.5,0.4z"/>
<path class="st0" d="M43.6,23.7l-10.6-5.8c-1-0.5-2.3-0.1-2.7,0.9L29,21.7c-0.4,0.9,0,2,0.9,2.5L40,29.6c0.9,0.5,2,0.2,2.5-0.6
	l1.7-2.5C44.9,25.6,44.6,24.3,43.6,23.7L43.6,23.7z"/>
<path class="st0" d="M73.9,51.4l-1.2,1.4c-0.3,0.4-0.9,0.5-1.3,0.2l-3.1-2c-0.5-0.3-1.1-0.2-1.4,0.3l-8.5,14
	c-0.3,0.5-0.1,1.2,0.4,1.5l1.5,0.7c0.5,0.3,0.8,0.9,0.5,1.5l-1,1.7c-0.3,0.5-0.1,1.1,0.3,1.4l2.8,1.9c0.4,0.3,0.6,0.8,0.3,1.3l-1,2
	c-0.1,0.1-0.1,0.2-0.2,0.3l-2.3,2.1c-0.5,0.4-0.4,1.2,0.1,1.6l0,0c0.4,0.3,0.9,0.2,1.2,0l3-2.3c0.3-0.2,0.8-0.3,1.1-0.1l0.7,0.4
	c0.5,0.3,0.7,1,0.3,1.5l-1.2,1.7c-0.3,0.5-0.2,1.2,0.4,1.5l1.6,0.8c0.6,0.3,1.3-0.1,1.5-0.7l0.2-1.2c0.1-0.6,0.8-1,1.4-0.7l1,0.4
	c0.5,0.2,1,0,1.3-0.4l5.9-9.8c0.3-0.5,0.2-1.1-0.3-1.4l-4.2-3c-0.3-0.2-0.5-0.7-0.4-1.1l3.6-13.6c0.1-0.4-0.1-0.9-0.5-1.2l-1.4-0.8
	C74.8,50.9,74.3,51,73.9,51.4L73.9,51.4z"/>
<path class="st0" d="M80.2,60.6l-2.6,6.5c-0.2,0.4,0,0.9,0.3,1.1l2.7,2c0.4,0.3,0.5,0.8,0.3,1.2l-9.5,19c-0.2,0.5-0.8,0.7-1.3,0.4
	l-10.8-6.1c-0.5-0.3-1.1-0.1-1.3,0.4l-1,2c-0.2,0.4-0.1,1,0.3,1.3l5.2,3.3c0.5,0.3,1.1,0.1,1.4-0.4l0.1-0.2c0.2-0.5,0.8-0.7,1.3-0.4
	l1.9,1.1c0.4,0.3,0.6,0.8,0.4,1.3l-1.6,2.9c-0.2,0.5-0.8,0.7-1.3,0.4l-16.9-9.4c-0.4-0.2-1-0.1-1.3,0.3l-0.6,0.9
	c-0.3,0.5-0.1,1.1,0.4,1.4l1.5,0.7c0.6,0.3,0.7,1.1,0.3,1.5l-1.3,1.3c-0.5,0.5-0.3,1.2,0.3,1.5l1.1,0.6c0.5,0.3,0.7,1,0.3,1.5
	l-6.1,7.6c-0.4,0.5-0.2,1.2,0.4,1.5l1.9,0.8c0.5,0.2,0.7,0.8,0.5,1.3l-3.8,8.6c-0.2,0.5-0.8,0.7-1.3,0.5l-10.5-5.5
	c-0.5-0.2-1-0.1-1.3,0.4l-16.7,31.5c-0.2,0.4-0.1,1,0.3,1.3l8.5,5.2c0.5,0.3,1,0.1,1.3-0.3l2.6-4.3c0.3-0.4,0.8-0.6,1.3-0.4
	l14.2,7.3c0.5,0.3,1.1,0,1.3-0.5l0.9-2.4c0.2-0.4,0-0.9-0.5-1.2l-3.5-1.9c-0.5-0.2-0.7-0.9-0.4-1.3l7.8-13.8
	c0.2-0.4,0.1-0.9-0.2-1.2l-1.7-1.4c-0.4-0.4-0.5-1-0.1-1.4l1.8-2c0.3-0.3,0.9-0.4,1.2-0.1l2.6,1.8c0.5,0.3,1.2,0.2,1.4-0.4l3-6.8
	c0.2-0.5,0.8-0.7,1.3-0.5l2.8,1.3c0.5,0.2,1.2-0.1,1.3-0.7l0,0c0.1-0.6,0.7-0.9,1.3-0.7l1.1,0.4c0.4,0.2,0.9,0,1.2-0.4l4.5-7.5
	c0.3-0.5,0.1-1.1-0.4-1.4l-4.9-2.1c-0.5-0.2-0.7-0.7-0.5-1.2l1.2-3.8c0.2-0.7,1-0.9,1.6-0.4l4.4,4c0.4,0.4,1.2,0.3,1.5-0.2l2.1-3.5
	c0.3-0.4,0.1-1-0.3-1.3l-1.4-0.9c-0.4-0.3-0.6-0.8-0.3-1.3l1.1-1.9c0.3-0.5,0.9-0.6,1.3-0.3l0.8,0.5c0.4,0.3,1,0.2,1.3-0.3l1.5-2.2
	c0.4-0.6,0.1-1.3-0.6-1.5l-0.6-0.1c-0.7-0.2-1-0.9-0.6-1.5l3.3-4.8c0.3-0.4,0.8-0.5,1.3-0.3l0.2,0.1c0.4,0.3,1,0.1,1.3-0.3
	l11.2-18.4c0.2-0.4,0.2-1-0.2-1.3l-9.4-7.1C81.2,59.8,80.4,60,80.2,60.6L80.2,60.6z"/>
<path class="st0" d="M37,165.4l-7.8,21.4c-0.2,0.6,0,1.1,0.5,1.4l7.6,4.4c0.6,0.3,1.3,0.1,1.7-0.5l2-3.5c0.3-0.5,0.1-1.2-0.4-1.6
	l-0.4-0.2c-0.6-0.4-0.7-1.2-0.2-1.8l1.4-1.7c0.3-0.4,0.8-0.5,1.3-0.4l0,0c0.6,0.2,1.2-0.1,1.5-0.6l4-7.8c0.3-0.5,0.9-0.8,1.5-0.6
	l1.4,0.5c0.5,0.2,1.2,0,1.4-0.5l1.4-2.5c0.3-0.6,0.1-1.3-0.4-1.6l-7.4-4.5c-0.7-0.4-1.5-0.1-1.8,0.6l-0.2,0.5
	c-0.3,0.7-1.1,1-1.8,0.6l-3.6-2.3C38.1,164.4,37.3,164.7,37,165.4L37,165.4z"/>
<path class="st0" d="M51.7,190.1l14.8,6.8c0.9,0.4,1.2,1.4,0.8,2.3l-7.6,13.7c-0.4,0.8-1.4,1.1-2.2,0.6l-1-0.6
	c-0.9-0.5-1.1-1.6-0.6-2.4l0.2-0.3c0.6-0.8,0.3-1.9-0.6-2.4L43.9,202c-0.8-0.4-1.2-1.5-0.7-2.3l0.3-0.6c0.3-0.6,1-0.9,1.6-0.8l0,0
	c0.7,0.1,1.5-0.3,1.7-1l2.5-6.3C49.8,190.1,50.8,189.6,51.7,190.1L51.7,190.1z"/>
<path class="st0" d="M53.8,235l-0.5,0.6c-0.5,0.5-0.4,1.4,0.2,1.8l0,0c0.5,0.4,0.6,1.2,0.2,1.8l-5.8,7.1c-0.5,0.6-0.3,1.6,0.5,1.9
	l1.6,0.7c0.7,0.3,1,1.1,0.6,1.8l-0.8,1.5c-0.3,0.6-1,0.8-1.7,0.5l-2.4-1.2c-0.6-0.3-1.3-0.1-1.6,0.5l-0.6,0.9
	c-0.4,0.6-0.2,1.4,0.5,1.8l14.3,7.4c0.6,0.3,1.4,0.1,1.7-0.6l8.5-18.5c0.3-0.6,0-1.3-0.6-1.6l-12.6-6.7
	C54.8,234.5,54.2,234.6,53.8,235L53.8,235z"/>
<path class="st0" d="M18.3,299.2L0.2,333.1c-0.3,0.6-0.1,1.4,0.5,1.8l12.3,7c0.7,0.4,1.6,0.1,1.9-0.7l0.7-1.9c0.3-0.9,1.4-1.1,2-0.6
	l1.6,1.3c0.7,0.5,1.7,0.3,2-0.5l0.4-0.8c0.3-0.7,1.2-1,1.8-0.6l15.3,8.6c0.8,0.5,1.8-0.1,1.9-1l0.4-3.5c0.1-0.9,1.1-1.5,1.9-1
	l6.7,3.6c0.6,0.3,1.4,0.1,1.7-0.5l0.7-1.1c0.4-0.6,0.2-1.5-0.5-1.8l-10.5-6c-0.7-0.4-0.9-1.2-0.4-1.9l15.1-22.8
	c0.4-0.6,0.2-1.4-0.3-1.8l-2.9-2c-0.6-0.4-1.5-0.2-1.9,0.4l-1.2,1.9c-0.3,0.6-1,0.8-1.7,0.5l-3.3-1.5c-0.8-0.4-1-1.4-0.5-2l0,0
	c0.6-0.7,0.3-1.7-0.5-2l-9.9-4.3c-0.7-0.3-1.5,0-1.7,0.7l-0.8,2c-0.3,0.7-1.1,1-1.8,0.7l-9.3-4.6C19.4,298.4,18.6,298.6,18.3,299.2
	L18.3,299.2z"/>
</svg>
