<?xml version="1.0" encoding="utf-8"?>
<!-- Generator: Adobe Illustrator 28.3.0, SVG Export Plug-In . SVG Version: 6.00 Build 0)  -->
<svg version="1.1" id="Layer_1" xmlns="http://www.w3.org/2000/svg" xmlns:xlink="http://www.w3.org/1999/xlink" x="0px" y="0px"
	 viewBox="0 0 351.5 149" style="enable-background:new 0 0 351.5 149;" xml:space="preserve">
<style type="text/css">
	.st0{fill:#FFDA49;stroke:#231F20;stroke-miterlimit:10;}
</style>
<path class="st0" d="M58.8,34L48,57.2c-0.5,1-1.8,1.3-2.6,0.7L44.2,57c-0.9-0.6-2.1-0.4-2.6,0.6l-5.1,9.1c-0.5,0.9-0.1,2,0.8,2.4
	l4.2,2c0.9,0.4,1.3,1.5,0.8,2.4l-6,11.9c-0.5,1-1.8,1.3-2.7,0.6l-2.2-1.8c-0.9-0.7-2.2-0.4-2.7,0.5L24.5,93
	c-0.4,0.8-0.1,1.9,0.7,2.3l5.4,3.1c0.8,0.5,1.1,1.5,0.7,2.3l-5.8,11.5c-0.5,0.9-1.6,1.2-2.5,0.7l-5.1-3c-0.9-0.5-2-0.2-2.5,0.7
	l-5.7,11.6c-0.4,0.9-1.5,1.2-2.4,0.8L7,122.9c-0.9-0.4-1.9-0.1-2.4,0.8l-4.4,8.7c-0.4,0.8-0.1,1.9,0.7,2.3l21.8,12.7
	c0.9,0.5,2,0.2,2.5-0.7l5.5-10.6c0.4-0.9,1.5-1.2,2.3-0.8l6.3,3.1c0.8,0.4,1.8,0.1,2.3-0.7l3.8-6.5c0.5-0.9,0.2-2-0.7-2.5l-8.4-4.3
	c-0.9-0.5-1.2-1.6-0.7-2.4l1.2-2c0.5-0.8,1.6-1.1,2.4-0.6l8.7,5.2c0.9,0.5,2,0.2,2.5-0.8l9-18.6c0.4-0.8,0.1-1.9-0.8-2.3l-8.3-4.4
	c-0.8-0.4-1.1-1.3-0.8-2.2l0.7-1.8c0.3-0.8,1.2-1.3,2.1-1.1l0.9,0.2c0.8,0.2,1.6-0.2,2-0.9l0.3-0.6c0.5-0.8,1.5-1.2,2.4-0.7l6,3.1
	c0.8,0.4,1.7,0.2,2.2-0.6l1.7-2.5c0.6-0.9,0.3-2.1-0.6-2.6l-15.9-8.3c-0.9-0.5-1.2-1.6-0.7-2.4l6.7-11.5c0.5-0.9,1.6-1.1,2.5-0.6
	l3.8,2.4c0.9,0.6,2,0.2,2.5-0.7l2.3-4.5c0.4-0.9,1.5-1.2,2.3-0.8l9,4.4c0.8,0.4,1.9,0.1,2.3-0.8l3.9-7.2c0.5-0.9,0.1-2-0.8-2.4
	l-5.7-2.9c-0.9-0.5-1.2-1.6-0.7-2.5l2.8-4.8c0.5-0.9,0.2-2-0.7-2.4L61.3,33.2C60.4,32.7,59.3,33.1,58.8,34L58.8,34z"/>
<path class="st0" d="M80.9,134.7l-3.8,7.4c-0.4,0.9-0.1,1.9,0.7,2.4l8.1,4.4c0.8,0.4,1.9,0.2,2.3-0.6l4.2-6.9c0.5-0.9,0.2-2-0.7-2.4
	l-8.5-4.8C82.4,133.5,81.3,133.8,80.9,134.7L80.9,134.7z"/>
<path class="st0" d="M317.7,0.9l-5.1,9.8c-0.5,0.9-0.1,1.9,0.7,2.4L315,14c0.9,0.5,1.2,1.5,0.7,2.4L300.3,46
	c-0.5,0.9-1.5,1.2-2.4,0.7L278.6,36c-0.9-0.5-2-0.2-2.4,0.7l-15.8,30.6c-0.3,0.6-0.2,1.3,0.1,1.8l6.7,9.7c0.1,0.2,0.3,0.4,0.6,0.5
	l3,1.8c0.8,0.5,1.1,1.5,0.7,2.3l-4.4,8.7c-0.4,0.8-0.1,1.9,0.7,2.3l39.9,21.6c0.9,0.5,1.9,0.2,2.4-0.7l9.8-18.1
	c0.5-0.9,0.1-2-0.8-2.4l-2-1c-0.9-0.4-1.3-1.6-0.8-2.5l30-52.9c0.5-0.8,0.2-1.9-0.7-2.4l-0.9-0.5c-0.9-0.5-1.2-1.7-0.5-2.6l7-9.4
	c0.6-0.8,0.4-2-0.5-2.5l-0.2-0.1c-0.8-0.5-1.1-1.5-0.6-2.3l0,0c0.5-0.9,0.1-1.9-0.7-2.4L320.1,0.2C319.2-0.3,318.1,0.1,317.7,0.9
	L317.7,0.9z"/>
</svg>
