<?xml version="1.0" encoding="utf-8"?>
<!-- Generator: Adobe Illustrator 28.3.0, SVG Export Plug-In . SVG Version: 6.00 Build 0)  -->
<svg version="1.1" id="Layer_1" xmlns="http://www.w3.org/2000/svg" xmlns:xlink="http://www.w3.org/1999/xlink" x="0px" y="0px"
	 viewBox="0 0 179.5 327.5" style="enable-background:new 0 0 179.5 327.5;" xml:space="preserve">
<style type="text/css">
	.st0{fill:#278CAD;stroke:#231F20;stroke-miterlimit:10;}
</style>
<path class="st0" d="M177.1,15.9l-1.2-0.9c-0.8-0.6-1-1.6-0.6-2.4l3.9-7.6c0.5-1,0.1-2.2-0.9-2.6l-5.1-2.2c-0.9-0.4-1.9-0.1-2.4,0.7
	l-39.7,63.2c-0.1,0.2-0.2,0.4-0.2,0.6l-5,23c-0.1,0.5-0.5,1-0.9,1.3l-3.5,1.9c-1.2,0.7-1.3,2.5-0.1,3.3l5.7,3.8
	c0.8,0.5,1.1,1.5,0.7,2.4l-0.7,1.5c-0.4,1-1.6,1.4-2.6,0.9l-0.8-0.4c-0.9-0.5-2.1-0.1-2.6,0.8l-0.4,0.7c-0.5,0.9-1.7,1.3-2.6,0.8
	l-5.6-3l-2.8-1.6c-0.9-0.5-2-0.3-2.5,0.6l-5.7,8.3c-0.2,0.4-0.4,0.8-0.3,1.2l1.1,14.5c0,0.3,0,0.7-0.2,1l-8.7,17.4
	c-0.2,0.4-0.6,0.7-1,0.9L76,150.9c-0.4,0.2-0.7,0.4-0.9,0.8l-17.6,30.9c-0.2,0.3-0.2,0.6-0.2,0.9L55.7,219c0,0.4-0.2,0.9-0.5,1.2
	c-1.2,1.3-4.4,4.9-8.4,9.4c-0.8,0.9-0.6,2.4,0.5,3l1.2,0.6c0.9,0.5,1.3,1.6,0.8,2.5l-1.4,2.8c-0.5,1-1.8,1.4-2.8,0.7l-2.9-2
	c-0.8-0.6-1.9-0.4-2.5,0.3c-8.2,9.3-16.5,18.9-16.3,19.7c0.3,1.4-8.2,28.6-10.6,36.3c-0.3,1.1-1.5,1.6-2.6,1.2l-4.6-2
	c-1-0.4-2.2,0.1-2.6,1.1l-2.8,8.5c-0.3,0.9,0.1,2,1,2.4l9.2,4c1.1,0.5,1.5,1.8,0.8,2.8l-0.8,1.2c-0.6,1-0.3,2.2,0.7,2.8l22.6,11.8
	c0.9,0.5,2.1,0.1,2.6-0.8l5-9.7c0.3-0.7,0.3-1.5-0.2-2l-2.3-3c-0.6-0.7-0.5-1.7,0.1-2.4l6-6.8c0.8-0.9,0.6-2.2-0.4-2.9l-3.5-2.3
	c-0.8-0.5-1.1-1.6-0.7-2.5l6.8-13c0.5-0.9,1.5-1.3,2.5-0.9l1.7,0.7c1.2,0.5,2.5-0.2,2.7-1.5l2.4-16.5c0-0.3,0.1-0.5,0.3-0.8
	l11.5-17.2c0.6-1,0.3-2.3-0.7-2.8l-2.6-1.3c-1-0.5-1.4-1.8-0.7-2.8l5.6-8.2c0.5-0.8,1.5-1,2.3-0.7l2.3,1c1,0.4,2.2-0.1,2.6-1.1
	l1.3-3.9c0.3-0.8,0-1.7-0.7-2.2l-2.4-1.6c-0.9-0.6-1.1-1.9-0.4-2.8l3.8-4.8c0.7-0.9,2-1,2.8-0.2l0.2,0.2c0.9,0.9,2.5,0.7,3.1-0.5
	l13.1-26.2c0.5-1.1,0-2.4-1.2-2.7l-1.3-0.4c-1.1-0.3-1.7-1.6-1.2-2.6l2.8-6.1c0.4-0.9,1.4-1.3,2.4-1l2,0.7c1.1,0.4,2.2-0.3,2.5-1.4
	l4.2-18.3c0.3-1.3,1.7-1.9,2.8-1.2l2,1.2c1,0.6,2.2,0.2,2.7-0.8l11.3-22.7c0.5-1.1,0-2.4-1.2-2.7l0,0c-1.1-0.3-1.7-1.6-1.2-2.7
	l1.1-2.4c0.4-0.9,1.4-1.3,2.4-1l2.5,0.9c0.9,0.3,1.8,0,2.3-0.8l3.9-6.3c0.5-0.9,0.3-2.1-0.6-2.6l-3.4-2.1c-0.8-0.5-1.1-1.6-0.7-2.4
	l1.1-2.3c0.4-0.8,1.3-1.3,2.2-1.1l1.6,0.4c1,0.2,2-0.3,2.3-1.3l4.2-13c0.4-1.3,2-1.7,3-0.9l0.1,0.1c0.9,0.7,2.3,0.5,2.9-0.6l2.7-4.9
	c0.1-0.2,0.2-0.5,0.2-0.8l0.6-8.9c0.1-1.3,1.5-2.2,2.7-1.6l2.6,1.2c0.9,0.4,2,0.1,2.5-0.8l13.6-26.2c0.5-0.9,0.1-2-0.7-2.5l-3-1.8
	c-0.9-0.5-1.2-1.6-0.7-2.5l3.3-6.4c0.6-1.1,2-1.4,2.9-0.6l0,0c1.2,1,3.1,0.2,3.1-1.4l0.2-4.7c0-0.7-0.3-1.3-0.9-1.7l-3.2-2.1
	c-0.9-0.5-1.1-1.7-0.6-2.6l3.1-5.4C178.3,17.5,178,16.4,177.1,15.9L177.1,15.9z M27.1,276.1l-2.5-1.5c-0.8-0.5-1.1-1.4-0.8-2.3
	l0.7-2.1c0.4-1.1,1.6-1.6,2.6-1.1l3.3,1.5c1.1,0.5,1.5,1.9,0.7,2.9l-1.5,2C29,276.4,27.9,276.6,27.1,276.1L27.1,276.1z"/>
</svg>
