<?xml version="1.0" encoding="utf-8"?>
<!-- Generator: Adobe Illustrator 28.3.0, SVG Export Plug-In . SVG Version: 6.00 Build 0)  -->
<svg version="1.1" id="Layer_1" xmlns="http://www.w3.org/2000/svg" xmlns:xlink="http://www.w3.org/1999/xlink" x="0px" y="0px"
	 viewBox="0 0 275.5 311.9" style="enable-background:new 0 0 275.5 311.9;" xml:space="preserve">
<style type="text/css">
	.st0{fill:#D2D250;stroke:#231F20;stroke-miterlimit:10;}
</style>
<path class="st0" d="M274.3,9.6l-21.8-9.5c-0.9-0.4-1.9-0.1-2.4,0.7l-22.2,34.9c-0.6,0.9-1.7,1.2-2.6,0.7l-13.5-7.1
	c-0.9-0.5-2-0.2-2.6,0.7l-62.8,98.4c-0.6,0.9-1.8,1.2-2.7,0.6L49,70.6c-0.9-0.5-2-0.3-2.6,0.6l-4.5,6.7c-0.5,0.7-1.3,1-2.1,0.8
	l-12.1-3.2c-0.8-0.2-1.3-0.9-1.4-1.7l-0.6-5.5c-0.1-0.9-0.8-1.6-1.7-1.7L18.9,66c-1.1-0.1-2,0.6-2.2,1.7l-0.5,3.7
	c-0.1,1.2-1.3,1.9-2.4,1.7l-7.5-1.9c-1.1-0.3-2.3,0.5-2.4,1.7L0,105.1c-0.1,1,0.6,2,1.6,2.2l1.4,0.2c1.3,0.2,2,1.6,1.4,2.8l-1,2
	c-0.6,1.2,0.2,2.7,1.5,2.8l12.3,1.4c1.1,0.1,2.1-0.7,2.2-1.9l0.4-11.4c0-1.1,1-2,2.2-1.9l18.4,2.2c1.6,0.2,2.3,2.2,1.2,3.3l-8.5,8.5
	c-0.8,0.8-0.8,2.1,0,2.8l5.3,4.9c0.7,0.6,0.8,1.6,0.4,2.4l-8.3,14.5c-0.5,0.8-1.4,1.2-2.3,0.9l-4.2-1.3c-1.1-0.4-2.3,0.4-2.5,1.6
	l-0.9,6.1c-0.1,0.9,0.3,1.7,1.1,2.1l6.4,2.9c1.1,0.5,1.5,1.9,0.8,2.9l-18.6,27.9c-0.8,1.2-0.1,2.8,1.3,3l12.4,1.8
	c0.8,0.1,1.5-0.2,1.9-0.9l10.1-16c0.5-0.9,1.7-1.2,2.6-0.7l5.2,2.9c1,0.6,1.3,2,0.6,2.9l-15,19.2c-0.7,0.9-0.5,2.1,0.4,2.8l5.1,3.6
	c0.9,0.6,1.1,1.8,0.5,2.7L10,241.5c-0.5,0.8-0.4,1.9,0.3,2.5L81,311.4c0.7,0.6,1.7,0.7,2.5,0.2l4.7-3.4c0.8-0.6,1-1.6,0.6-2.5
	l-2.6-4.8c-0.4-0.7-0.3-1.5,0.2-2.1l13.8-18.6c0.6-0.8,1.8-1,2.7-0.4l4.7,3.2c0.9,0.6,2.1,0.4,2.7-0.5l4.6-6.6
	c0.6-0.9,1.9-1.1,2.8-0.4l8.7,6.5c0.8,0.6,1.9,0.5,2.6-0.2l16.6-18.4c0.2-0.3,0.4-0.6,0.5-0.9l3.5-17.6c0.2-0.9-0.2-1.7-1-2.1
	l-16-8.2c-1-0.5-1.4-1.8-0.8-2.7l8.9-15c0.5-0.8,1.5-1.2,2.4-0.8l9.1,3.5c1.1,0.4,2.3-0.2,2.6-1.4l7.7-32.7c0.1-0.3,0.2-0.5,0.4-0.7
	l23.2-30.5c0.8-1,0.4-2.5-0.9-3l-25.1-9.7c-1.4-0.5-1.7-2.3-0.6-3.3l6.9-6.2c0.6-0.6,1.6-0.7,2.4-0.2l17.6,11.3
	c0.9,0.6,2.2,0.3,2.8-0.7l8.3-15.1c0.5-1,1.7-1.3,2.7-0.7l8.6,5c0.8,0.5,1.2,1.5,0.9,2.4l-4.1,11.2c-0.4,1.1,0.2,2.2,1.3,2.5
	l8.1,2.4c1,0.3,2-0.2,2.4-1.1l1.5-3.8c0.4-1,1.6-1.5,2.6-1.1l4.6,2c0.8,0.4,1.3,1.3,1.1,2.2l-2.3,12.1c-0.2,0.9,0.3,1.9,1.2,2.2
	l2.9,1.1c1.1,0.4,2.2-0.2,2.6-1.2l0.8-2.6c0.3-1,1.3-1.6,2.3-1.3l2.4,0.6c0.9,0.2,1.9-0.2,2.3-1.1l6.6-16c0.4-0.9,0-1.9-0.8-2.4
	l-8.7-5.1c-0.9-0.5-1.2-1.7-0.7-2.6l1.5-2.7c0.6-1,1.9-1.3,2.9-0.6l3.2,2.4c1.1,0.8,2.7,0.2,3-1.1l2.3-9.3c0.2-0.9-0.2-1.9-1.1-2.3
	l-2.7-1.1c-0.9-0.4-1.4-1.4-1.1-2.4l1.9-5.7c0.3-0.8,1.1-1.4,2-1.3l4.3,0.3c0.9,0.1,1.8-0.5,2-1.4l0.6-2c0.3-1-0.3-2.1-1.3-2.4
	l-4.6-1.4c-1.5-0.4-1.9-2.3-0.7-3.3l0,0c0.9-0.8,0.9-2.3-0.1-3l-5.8-4.3c-0.9-0.6-1.1-1.9-0.4-2.7l4.7-6.4c0.6-0.8,1.6-1,2.5-0.6
	l12.3,6.3c1.2,0.6,2.6-0.1,2.8-1.5l5.3-38.5c0.1-0.8-0.3-1.7-1.1-2l-14.4-7c-1.2-0.6-1.5-2.2-0.5-3.2l22-21.5
	C275.9,11.9,275.6,10.2,274.3,9.6L274.3,9.6z M41.9,95.5l-5.8-0.9c-1.2-0.2-2-1.5-1.5-2.7l2.4-5.8c0.3-0.8,1.1-1.2,1.9-1.2l9.2,0.3
	c1.7,0.1,2.5,2,1.4,3.3l-5.8,6.4C43.2,95.4,42.6,95.6,41.9,95.5z"/>
</svg>
