<?xml version="1.0" encoding="utf-8"?>
<!-- Generator: Adobe Illustrator 28.3.0, SVG Export Plug-In . SVG Version: 6.00 Build 0)  -->
<svg version="1.1" id="Layer_1" xmlns="http://www.w3.org/2000/svg" xmlns:xlink="http://www.w3.org/1999/xlink" x="0px" y="0px"
	 viewBox="0 0 257.6 318.4" style="enable-background:new 0 0 257.6 318.4;" xml:space="preserve">
<style type="text/css">
	.st0{fill:#ADD47D;stroke:#231F20;stroke-miterlimit:10;}
</style>
<path class="st0" d="M52,11.3l27.3,12.6c1.1,0.5,1.7,1.6,1.5,2.8L80.2,31c-0.3,1.9-2.4,2.9-4,1.9l0,0c-1.5-0.9-3.6-0.1-3.9,1.7
	l-3.1,14.2c-0.4,1.8-2.4,2.6-4,1.7l-2.9-1.8c-1.1-0.7-2.6-0.5-3.5,0.6l-1.3,1.7c-0.9,1.1-0.7,2.7,0.3,3.6l9.2,8.4
	c0.4,0.4,0.9,0.6,1.5,0.7l28.3,3.3c1.2,0.1,2.3-0.5,2.7-1.6l3.1-7.1c0.6-1.5,2.4-2,3.8-1.2l83,51.2c1.2,0.7,1.6,2.2,1,3.4l-4.2,8.2
	c-0.5,1-1.7,1.6-2.8,1.4l-2.4-0.4c-1.1-0.2-2.2,0.3-2.8,1.3l-1.8,3.2c-0.7,1.3-0.2,3,1.2,3.6l15.2,7.3c1.2,0.6,2.6,0.2,3.3-0.9
	l2.1-3.1c0.8-1.1,2.3-1.5,3.4-0.8l31.7,17.6c1.5,0.9,1.8,2.9,0.6,4.2l-1.5,1.5c-1.3,1.3-0.9,3.4,0.7,4.2l4.8,2.3
	c1.3,0.6,1.9,2.2,1.2,3.6l-1,2c-0.6,1.2-0.2,2.8,1,3.5l17.1,9.9c1.2,0.7,1.7,2.3,1,3.6l-46.7,82.6c-0.7,1.3-2.4,1.7-3.7,1
	l-34.3-21.1c-1.3-0.8-3.1-0.3-3.7,1.1l-4.6,9.2c-0.6,1.2-0.2,2.6,0.9,3.4l16.8,11.2c1.1,0.8,1.5,2.3,0.8,3.5l-24.5,42.7
	c-0.7,1.3-2.3,1.7-3.6,1l-18.4-10.5c-1.3-0.7-1.7-2.4-0.9-3.6l0.8-1.3c0.7-1.1,0.4-2.5-0.5-3.4l-18.3-15.8c-0.9-0.8-1.2-2.1-0.6-3.2
	l26-51c0.6-1.3,0.2-2.8-1.1-3.5l-3.9-2.1c-1.4-0.8-3.1-0.1-3.7,1.4l-23.7,60.6c-0.7,1.8-3,2.2-4.3,0.9l-5.9-6.2
	c-0.8-0.9-2.1-1-3.2-0.5l-7.5,4.2c-1.3,0.7-3,0.2-3.6-1.1l-4.8-9.5c-0.7-1.3-0.2-2.9,1.2-3.5l11-5.6c1.3-0.7,1.8-2.3,1.1-3.6
	L86.9,247c-1-1.9-3.8-1.9-4.7,0.1l-10.5,22.1c-0.4,1-1.4,1.5-2.5,1.5l-2.8-0.1c-1.8-0.1-3-2-2.3-3.7l2.8-6.6
	c0.7-1.7-0.4-3.6-2.2-3.7l-16.3-1.1c-1.4-0.1-2.5-1.3-2.5-2.8l0.5-10.9c0.1-1.6-1.2-2.8-2.8-2.8l-1.4,0.1c-1.6,0.1-2.9-1.3-2.8-2.9
	l1-11.4c0.1-1.5-1-2.8-2.5-2.9l-6.1-0.2c-1.6-0.1-2.8-1.6-2.5-3.2l3.6-17.4c0.4-1.9-1.3-3.5-3.1-3.1l-7.9,1.7
	c-1.7,0.4-3.3-1-3.2-2.8l1-12.6c0.1-1.1,0.8-2,1.9-2.3l5.1-1.5c1.1-0.3,1.9-1.4,1.9-2.5v-4.2c0-1.7-1.6-3-3.2-2.6l-2.4,0.6
	c-1.7,0.4-3.4-0.9-3.2-2.7l5.1-89.1c0.1-1.5-1-2.7-2.5-2.8L2.5,76.7C1,76.6-0.1,75.3,0,73.8l0.9-7.6c0.2-1.4,1.3-2.4,2.7-2.3
	l21.5,0.6c1.5,0,2.7-1.2,2.7-2.7l-0.3-18c0-0.5,0.1-1,0.4-1.4l9.6-16.1c0.7-1.2,0.3-2.8-0.9-3.6l-5-3.1c-1.3-0.8-1.6-2.4-0.8-3.7
	l3-4.6c0.8-1.2,2.4-1.6,3.7-0.8l1.1,0.7c1.5,0.9,3.4,0.2,4-1.4l2.4-7.9c0.5-1.6,2.3-2.3,3.8-1.5l1.6,0.9c1,0.6,1.6,1.7,1.3,2.9
	l-0.9,4.3C50.3,9.5,50.9,10.8,52,11.3L52,11.3z"/>
</svg>
