<?xml version="1.0" encoding="utf-8"?>
<!-- Generator: Adobe Illustrator 28.3.0, SVG Export Plug-In . SVG Version: 6.00 Build 0)  -->
<svg version="1.1" id="Layer_1" xmlns="http://www.w3.org/2000/svg" xmlns:xlink="http://www.w3.org/1999/xlink" x="0px" y="0px"
	 viewBox="0 0 200.7 308.1" style="enable-background:new 0 0 200.7 308.1;" xml:space="preserve">
<style type="text/css">
	.st0{fill:#BDAFD5;stroke:#231F20;stroke-miterlimit:10;}
</style>
<path class="st0" d="M159.4,2.2l-48,54.4c-1,1.1-1.1,2.8-0.3,4.1l5,8c0.9,1.5,0.6,3.3-0.6,4.4l-24.3,21c-1.4,1.2-1.6,3.4-0.4,4.8
	l5.8,6.8c1,1.1,2.6,1.5,4,0.9l0,0c1.5-0.6,3.2-0.2,4.2,1.2l1.5,2.2c1,1.5,0.8,3.4-0.6,4.6l-12,10.2c-1.5,1.2-1.7,3.4-0.4,4.9l31,36
	c1.3,1.6,3.8,1.6,5.2,0l23.6-26.9c0.2-0.3,0.5-0.5,0.8-0.6l31.6-19.5c1.9-1.1,2.2-3.7,0.6-5.3l-33.3-34.3c-1.5-1.6-1.2-4.1,0.6-5.3
	L196.4,46c1.7-1.1,2.1-3.5,0.8-5.1L164.7,2.2C163.3,0.6,160.8,0.6,159.4,2.2L159.4,2.2z"/>
<path class="st0" d="M10.4,231.6l98.2-29.2c5.4-1.6,11,1.6,12.4,7.1l10.7,43.7c1.2,4.8-1.4,9.8-6.1,11.6l-104.2,39
	c-6.1,2.3-12.7-1.9-13.3-8.4l-4.7-53.6C3,237.3,5.9,233,10.4,231.6z"/>
</svg>
