<?xml version="1.0" encoding="utf-8"?>
<!-- Generator: Adobe Illustrator 28.3.0, SVG Export Plug-In . SVG Version: 6.00 Build 0)  -->
<svg version="1.1" id="Layer_1" xmlns="http://www.w3.org/2000/svg" xmlns:xlink="http://www.w3.org/1999/xlink" x="0px" y="0px"
	 viewBox="0 0 198.5 341.5" style="enable-background:new 0 0 198.5 341.5;" xml:space="preserve">
<style type="text/css">
	.st0{fill:#B0E2F9;stroke:#231F20;stroke-miterlimit:10;}
</style>
<path class="st0" d="M197.7,47.8l-5.7-2.6c-0.6-0.2-1.2-0.1-1.6,0.3l-2.4,2.6c-0.6,0.7-1.7,0.6-2.2-0.2l-0.2-0.3
	c-0.6-0.9-1.8-0.9-2.4,0l-0.5,0.8c-0.4,0.6-0.3,1.4,0.3,1.9l2.8,2.3c0.5,0.4,0.6,1.1,0.4,1.7l-0.6,1.2c-0.4,0.8-1.3,1-2,0.6l-3.5-2
	c-0.6-0.3-1.3-0.2-1.8,0.3l-2.1,2.4c-0.4,0.5-1.1,0.6-1.7,0.3l-14.4-6.9c-0.7-0.3-1-1.2-0.7-1.9l6-12c0.4-0.7,1.2-1,1.9-0.6l3.8,1.9
	c0.7,0.3,1.5,0.1,1.9-0.6l2.5-4.3c0.4-0.7,0.1-1.6-0.6-2l-4.1-2.2c-0.7-0.4-1-1.3-0.5-2l1.7-2.6c0.5-0.7,0.2-1.7-0.7-2.1l-6.4-2.6
	c-0.8-0.3-1.1-1.2-0.7-2l1.2-2.3c0.3-0.6,0.9-0.8,1.5-0.7l2.4,0.4c0.4,0.1,0.9-0.1,1.2-0.4l0.3-0.3c0.7-0.7,0.5-1.8-0.4-2.2
	l-0.1-0.1c-0.7-0.4-1-1.3-0.5-2l3.3-5.5c0.4-0.7,0.2-1.5-0.5-2l-3.1-1.9c-0.7-0.4-1.6-0.2-2,0.5L0.2,309.8c-0.4,0.8,0,1.9,0.9,2.1
	l6.6,1.6c0.5,0.1,1.1-0.1,1.4-0.5l1.3-1.5c0.6-0.6,0.4-1.6-0.3-2.1l-1.7-1.1c-0.7-0.5-0.8-1.5-0.3-2.1l5.1-5.8
	c0.5-0.6,1.3-0.6,1.9-0.2l6.2,4.6c0.6,0.5,1.6,0.3,2-0.3l1.1-1.6c0.4-0.6,1.2-0.8,1.9-0.4l20.8,11.9c0.7,0.4,1.6,0.1,2-0.6l2.7-5.3
	c0.4-0.8,0-1.7-0.8-2l-4.2-1.6c-0.8-0.3-1.1-1.1-0.8-1.9l1.1-2.8c0.3-0.8,1.2-1.1,1.9-0.8l7.8,3.6c0.7,0.3,1.6,0,1.9-0.7l2-4.3
	c0.4-0.9,1.5-1.1,2.2-0.5l0.9,0.8c0.6,0.5,1.5,0.5,2-0.1l1.5-1.6c0.4-0.5,1.1-0.6,1.6-0.3l1.9,0.9c0.8,0.4,1.7-0.1,1.9-0.9l0.7-2.5
	c0.2-0.6-0.1-1.2-0.6-1.6l-5.1-3.5c-0.6-0.4-0.8-1.3-0.4-2l6.9-10.6c0.4-0.7,0.2-1.6-0.5-2c-1.6-0.8-3.9-2-4.4-2.2
	c-0.6-0.2,1.3-5.9,2.2-8.7c0.3-0.8,1.2-1.2,1.9-0.9l3.9,1.7c0.7,0.3,1.5,0,1.8-0.6l2.8-5.1c0.4-0.7,1.3-1,2-0.5l9.3,5.6
	c0.8,0.5,1.8,0.1,2.1-0.8l7.8-23.1c0.2-0.6,0.9-1.1,1.5-1l3.1,0.4c0.6,0.1,1.2-0.2,1.5-0.8l3.7-7.9c0.2-0.5,0.2-1.2-0.3-1.6
	l-4.1-4.3c-0.4-0.5-0.5-1.2-0.2-1.8l5.3-8.2c0.4-0.6,1.2-0.8,1.8-0.5l3,1.4c0.8,0.4,1.7,0,2-0.8l0.3-0.8c0.2-0.6,0-1.3-0.6-1.7
	l-6.8-4.3c-0.6-0.4-1.3-0.3-1.8,0.2l-2.1,2.2c-0.4,0.5-1.2,0.6-1.8,0.3l-1.8-1c-0.6-0.4-0.9-1.1-0.6-1.8l0.7-1.8
	c0.1-0.2,0.1-0.4,0.1-0.5c0-0.5-0.3-1-0.7-1.3c-0.8-0.4-1-1.5-0.4-2.2l0.4-0.4c0.7-0.8,0.4-2-0.6-2.3l-3.5-1.2
	c-0.9-0.3-1.2-1.3-0.7-2.1l3.9-6c0.4-0.7,1.4-0.9,2.1-0.6h0c0.7,0.5,1.6,0.3,2-0.4l1-1.4c0.4-0.6,1.1-0.8,1.7-0.5l5.7,2.4
	c0.7,0.3,1.5,0,1.8-0.6l2.7-5c0.3-0.7,0.1-1.5-0.5-1.9l-4.3-2.7c-0.4-0.3-0.7-0.7-0.7-1.2v-3.9c0-0.3,0.1-0.6,0.3-0.8l6.6-9.4
	c0.1-0.1,0.2-0.3,0.2-0.4l1.7-5.6c0.3-1,1.6-1.3,2.3-0.6l0,0c0.7,0.6,1.7,0.5,2.3-0.2l0.8-1.1c0.6-0.7,0.3-1.8-0.6-2.2l-0.3-0.1
	c-0.8-0.3-1.1-1.2-0.7-2l4.4-8.4c0.3-0.5,0.9-0.8,1.4-0.8l1.9,0.2c0.5,0.1,0.9-0.1,1.3-0.5l1.7-2c0.5-0.6,0.5-1.5-0.1-2.1l-1.4-1.4
	c-0.4-0.4-0.5-1.1-0.2-1.7l12.8-23.4l0.1-0.2l15.9-20.2c0.2-0.2,0.3-0.5,0.3-0.8l0.4-5.4c0.1-0.9,0.9-1.5,1.7-1.3l5.2,1.2
	c0.6,0.1,1.1-0.1,1.4-0.5l0.9-1.1c0.4-0.6,1.3-0.7,1.9-0.4l0.7,0.4c0.7,0.4,1.6,0.2,2-0.6l4.9-9.4c0.5-0.9-0.1-2-1.1-2.1l-1.7-0.2
	c-0.8-0.1-1.4-0.8-1.3-1.6l0.5-3.3c0.1-1,1.2-1.5,2-1.1l3.3,1.6c0.7,0.3,1.6,0.1,1.9-0.6l8.6-16.6C198.7,49,198.4,48.1,197.7,47.8
	L197.7,47.8z M93.6,239.1c-2.9-1.2-5.9-2.4-8.8-3.6c-0.6-0.2-0.8-0.9-0.3-1.4c1.3-1.5,2.6-3.1,3.9-4.6c0.2-0.3,0.7-0.4,1-0.3
	l7.9,3.2c0.5,0.2,0.7,0.8,0.4,1.3l-2.9,5C94.5,239.2,94,239.3,93.6,239.1L93.6,239.1z M151.4,83.8l-1.2-0.8
	c-0.7-0.4-1.6-0.1-1.9,0.6l-12.7,37c-0.2,0.6-0.8,0.9-1.4,0.8l-2.7-0.5c-0.6-0.1-1.2,0.2-1.4,0.8l-5.9,19.2
	c-0.2,0.5-0.6,0.9-1.2,0.9h-1.7c-0.5,0-0.9,0.3-1.1,0.7l-8.9,19.2c-0.3,0.6,0,1.3,0.6,1.5l2.3,0.9c0.6,0.2,0.9,0.9,0.7,1.5l-1.9,4.5
	c-0.3,0.6-1.1,0.9-1.6,0.5l-6.2-3.8c-0.5-0.3-1.2-0.2-1.5,0.3l-1.7,2.3c-0.4,0.5-1.1,0.6-1.6,0.3l-1.5-1c-0.6-0.4-1.4-0.1-1.7,0.5
	l-3.8,9.7c-0.2,0.5-0.7,0.8-1.2,0.7l-3.8-0.4c-0.8-0.1-1.2-0.9-0.9-1.7l8.1-15.3c0.2-0.4,0.2-0.9-0.2-1.3l-2.8-3.1
	c-0.5-0.5-0.4-1.3,0.1-1.8l0.6-0.5c0.3-0.2,0.6-0.3,1-0.3l5.5,0.7c0.8,0.1,1.5-0.6,1.4-1.4l-0.3-1.5c-0.1-0.4-0.4-0.8-0.8-0.9
	l-2.3-0.7c-1-0.3-1.2-1.7-0.3-2.2l1.2-0.8c0.2-0.1,0.5-0.2,0.7-0.2l2,0.1c0.8,0.1,1.4-0.6,1.3-1.4l-0.7-5.8
	c-0.1-0.4,0.1-0.9,0.5-1.2l6.9-4.9c0.8-0.6,0.7-1.7-0.2-2.1l-2.6-1.2c-0.5-0.2-0.8-0.8-0.7-1.3l0.5-3.5c0.1-0.5-0.2-1-0.7-1.3
	l-0.3-0.2c-0.7-0.3-0.9-1.2-0.4-1.8l3.2-4.4c0.3-0.4,0.9-0.6,1.4-0.4l2.2,0.8c0.8,0.3,1.1,1.3,0.5,2l0,0c-0.6,0.7-0.3,1.8,0.6,2
	l2,0.5c0.5,0.1,1-0.1,1.3-0.5l2.5-3.7c0.4-0.5,0.3-1.3-0.2-1.7l-4.5-3.6c-0.4-0.3-0.6-0.8-0.4-1.3l3.7-12.2c0.2-0.7,1-1.1,1.6-0.8
	l2.4,0.9c0.4,0.2,0.9,0.1,1.3-0.2l5-4.7c0.5-0.5,0.5-1.3,0-1.8l-0.9-0.9c-0.3-0.3-0.5-0.9-0.3-1.3l2.4-5.9c0.1-0.4,0.5-0.7,0.9-0.8
	l8.4-1.9c0.3-0.1,0.6-0.2,0.7-0.5l5-7.2c0.3-0.5,1-0.7,1.5-0.4l8.4,3.8c0.7,0.3,0.9,1.1,0.5,1.8l-1.3,2.1
	C152.8,84,152,84.2,151.4,83.8L151.4,83.8z"/>
<path class="st0" d="M87.7,327.5l-7.5,13.3c-0.4,0.7-1.2,0.9-1.9,0.6l-10.8-5.7c-0.7-0.4-1-1.2-0.6-2l6.8-12.4
	c0.3-0.5,0.8-0.8,1.4-0.7l1.6,0.2c0.8,0.1,1.4,0.9,1.2,1.7l-0.1,0.6c-0.2,0.7,0.2,1.4,0.9,1.6l1.9,0.7c0.6,0.2,1.3,0,1.6-0.5
	l0.7-0.9c0.5-0.7,1.5-0.8,2.1-0.2l2.3,2C87.9,326.1,88,326.9,87.7,327.5L87.7,327.5z"/>
</svg>
