<?xml version="1.0" encoding="utf-8"?>
<!-- Generator: Adobe Illustrator 28.3.0, SVG Export Plug-In . SVG Version: 6.00 Build 0)  -->
<svg version="1.1" id="Layer_1" xmlns="http://www.w3.org/2000/svg" xmlns:xlink="http://www.w3.org/1999/xlink" x="0px" y="0px"
	 viewBox="0 0 195 345" style="enable-background:new 0 0 195 345;" xml:space="preserve">
<style type="text/css">
	.st0{fill:#254878;stroke:#231F20;stroke-miterlimit:10;}
</style>
<path class="st0" d="M185.6,0.3l2,1.5c0.8,0.6,1.9,0.2,2.3-0.7l0,0c0.4-1,1.6-1.3,2.4-0.6l2.2,1.9c0.6,0.5,0.7,1.3,0.3,1.9l-3.4,5.3
	c-0.5,0.8-1.5,0.9-2.2,0.3l-1.7-1.5c-0.7-0.6-1.9-0.4-2.3,0.4l-2.5,4.9c-0.3,0.7-1.1,1-1.8,0.7l-1.9-0.7c-0.8-0.3-1.2-1.3-0.8-2.1
	l5.5-10.9C183.9,0,184.9-0.3,185.6,0.3L185.6,0.3z"/>
<path class="st0" d="M145.2,77.3l13.5,6.6c0.9,0.4,1.2,1.5,0.7,2.3l-142.6,258c-0.4,0.8-1.4,1.1-2.2,0.7l-5.4-2.7
	c-0.7-0.4-1.1-1.1-0.9-1.9l2.1-9c0.1-0.4,0.4-0.8,0.8-1l13.4-8.3c0.4-0.2,0.6-0.5,0.7-0.9l2.5-8.2c0.2-0.7,0-1.4-0.6-1.9l-10.4-7.4
	c-0.4-0.3-0.6-0.7-0.7-1.2l-2.8-22.8c-0.1-0.6-0.5-1.2-1.1-1.4l-11-3.7c-0.9-0.3-1.3-1.2-1.1-2.1c1.4-4.7,5.4-18.3,4.5-20
	c-0.9-1.8,17.8-39.5,21.8-47.6c0.4-0.8,1.4-1.2,2.2-0.8l11.1,5.6c0.8,0.4,1.7,0.1,2.2-0.6l2.8-4.7c0.5-0.8,0.2-1.9-0.6-2.3l-6.6-3.7
	c-0.5-0.3-1.2-0.3-1.8,0.1l-2.5,1.7c-0.7,0.4-1.5,0.4-2.1-0.2l-1.7-1.7c-0.7-0.7-0.6-1.9,0.2-2.5l5.9-4.6c0.8-0.6,0.9-1.9,0.1-2.6
	l-3.1-2.9c-0.8-0.7-1.9-0.6-2.5,0.3l-1.4,2c-0.5,0.8-1.6,0.9-2.4,0.4l-1.5-1.1c-0.7-0.5-0.9-1.4-0.5-2.1l3.6-6.8
	c0.4-0.8,1.4-1.1,2.2-0.7l3.5,1.6c0.8,0.4,1.8,0,2.2-0.8l14.7-31.2c0.4-0.8,1.3-1.2,2.1-0.9l9,3.2c1.1,0.4,1.5,1.7,0.8,2.6l-6.2,8.3
	c-0.6,0.8-0.4,1.8,0.4,2.4l11.8,8.3c0.9,0.6,2.2,0.2,2.5-0.8l0.5-1.4c0.4-1,1.6-1.4,2.5-0.8l3.5,2.4c0.7,0.5,1.6,0.4,2.2-0.2
	l4.3-4.7c0.7-0.7,0.6-1.8-0.2-2.4l-3.8-3.2c-0.8-0.6-0.8-1.8-0.1-2.5l4-4c0.8-0.8,0.6-2.2-0.5-2.7L63,141.5c-1-0.4-1.3-1.6-0.7-2.5
	l2.4-3.4c0.5-0.8,1.6-1,2.4-0.4l13.2,9.6c0.9,0.7,2.3,0.2,2.6-0.9l0.5-1.9c0.2-0.7-0.1-1.5-0.8-1.9l-0.6-0.3
	c-0.9-0.5-1.1-1.8-0.4-2.6l3-3.3c0.8-0.8,0.5-2.2-0.5-2.7l-4.1-1.9c-0.8-0.4-1.2-1.2-0.9-2.1l3-8.9c0.3-0.9,1.3-1.4,2.2-1l14.2,6.1
	c0.9,0.4,1.3,1.5,0.8,2.3l-1.4,2.5c-0.4,0.8-0.2,1.7,0.5,2.2l6.3,4.2c0.8,0.5,1.9,0.3,2.4-0.6l11.8-20.1c0.5-0.8,1.5-1.1,2.3-0.6
	l9.7,5.4c0.8,0.4,1.8,0.2,2.2-0.6l1.9-2.9c0.4-0.7,0.3-1.6-0.3-2.2l-8.1-6.9c-0.5-0.4-0.7-1.1-0.5-1.8l0.5-1.8
	c0.3-1.1,1.6-1.5,2.5-0.9l3.1,2c0.6,0.4,1.5,0.4,2.1-0.1l3-2.7c0.4-0.3,0.8-0.5,1.3-0.4l0,0c1.5,0.2,2.4-1.6,1.4-2.8l-4.4-4.9
	c-0.5-0.5-0.6-1.3-0.2-2l7.6-13.1C143.5,77.2,144.4,76.9,145.2,77.3L145.2,77.3z"/>
</svg>
